<svg width="118" height="45" viewBox="0 0 118 45" fill="none" xmlns="http://www.w3.org/2000/svg">
<mask id="mask0" mask-type="alpha" maskUnits="userSpaceOnUse" x="20" y="0" width="98" height="45">
<path d="M20.4551 44.39H117.883V0.00476074H69.1689H20.4551V44.39Z" fill="white"/>
</mask>
<g mask="url(#mask0)">
<path fill-rule="evenodd" clip-rule="evenodd" d="M116.683 22.1938C110.767 34.4382 84.6039 44.4066 58.4431 44.4066C32.256 44.4066 15.7411 34.4382 21.6559 22.1938C27.5472 9.99714 53.7333 0.00476074 79.8968 0.00476074C106.083 0.00476074 122.595 9.99714 116.683 22.1938Z" fill="#032B76"/>
<path fill-rule="evenodd" clip-rule="evenodd" d="M79.309 0.476868C104.752 0.476868 120.766 10.1614 114.979 22.0026C109.215 33.8685 83.7489 43.5539 58.3558 43.5539C32.9135 43.5539 16.8985 33.8685 22.6614 22.0026C26.4023 14.3687 38.2506 7.66921 52.9938 3.82632C54.0405 3.53948 55.1138 3.30669 56.1863 3.04605C63.5191 1.41187 71.4269 0.476868 79.309 0.476868Z" fill="#0A0A08"/>
<path fill-rule="evenodd" clip-rule="evenodd" d="M78.9269 1.12085C104.049 1.12085 119.894 10.4676 114.22 21.8773C108.545 33.3312 83.4445 42.6575 58.3452 42.6575C33.2218 42.6575 17.3774 33.3312 23.0527 21.8773C28.7047 10.4676 53.8267 1.12085 78.9269 1.12085Z" fill="#969998"/>
</g>
<path fill-rule="evenodd" clip-rule="evenodd" d="M74.9222 3.07086C97.6192 3.07086 111.905 11.431 106.742 21.6531C101.601 31.8968 78.8824 40.2577 56.2303 40.2577C33.5338 40.2577 19.2473 31.8968 24.3882 21.6531C27.7255 15.0631 38.2949 9.27938 51.4468 5.96247C52.3807 5.71479 53.3382 5.51372 54.2948 5.28921C60.8364 3.87789 67.8905 3.07086 74.9222 3.07086Z" fill="#0A0A08"/>
<path fill-rule="evenodd" clip-rule="evenodd" d="M103.017 13.2685C104.106 15.0908 104.308 17.1417 103.445 19.2919C102.638 20.9195 101.711 22.2299 100.331 23.519C93.17 30.1837 77.0562 35.1547 60.9637 35.1547C41.9896 35.1547 30.0243 28.2475 34.347 19.7795C37.3172 13.9503 47.3823 8.65083 59.4357 6.032C60.8537 5.72447 62.2944 5.48258 63.757 5.26221C60.9213 5.54878 58.1466 5.96608 55.4185 6.55962C42.0553 9.52984 30.7233 14.3254 27.4252 20.9675C22.6441 30.6239 35.897 38.4978 56.9469 38.4978C74.1939 38.4978 91.4664 33.2196 99.7633 25.982C100.7 25.1697 101.797 24.0221 102.657 22.7994C103.013 22.3046 103.324 21.8037 103.584 21.2982C105.069 18.3941 104.786 15.6446 103.017 13.2685Z" fill="#0D5DB8"/>
<path fill-rule="evenodd" clip-rule="evenodd" d="M13.1543 20.1323C12.7521 20.7692 12.3485 21.2394 11.9548 21.5304L11.9391 21.5423C11.4846 21.9022 10.8894 22.0851 10.1699 22.0851C9.70249 22.0851 9.3816 21.991 9.29207 21.8313C9.28276 21.8073 9.07194 21.222 9.72275 19.1102C10.1532 17.7725 10.6548 16.8168 11.2136 16.2696C11.9074 15.5701 12.6518 15.2444 13.5565 15.2444C13.8407 15.2444 14.0767 15.2885 14.2204 15.3685C14.328 15.4297 14.4132 15.478 14.4469 15.8718L14.5783 17.4136H21.7923C21.3394 18.0179 20.952 18.6694 20.641 19.3515H13.6471L13.1543 20.1323ZM30.6417 20.5805C30.3726 21.4435 30.0257 22.0704 29.6388 22.392C29.2432 22.7112 28.9108 22.8535 28.5606 22.8535C28.488 22.8535 28.4418 22.8468 28.4146 22.8408C28.3993 22.7456 28.3763 22.4072 28.617 21.6341C28.8467 20.8467 29.1846 20.249 29.5928 19.9056C29.9668 19.6044 30.3132 19.4698 30.7154 19.4698C30.7641 19.4698 30.7992 19.4726 30.8235 19.4759C30.838 19.5829 30.8479 19.9009 30.6417 20.5805ZM47.8685 20.5631C47.647 21.3255 47.3494 21.8936 47.0304 22.1634C46.7703 22.3843 46.5505 22.4913 46.3585 22.4913C46.3391 22.4913 46.3216 22.4908 46.3057 22.4902C46.3098 22.3573 46.3399 22.0906 46.4771 21.6451C46.7747 20.6685 47.1107 20.2495 47.3406 20.0694C47.6035 19.8535 47.8294 19.7404 48.0668 19.707C48.0528 19.8684 48.0068 20.137 47.874 20.5458L47.8685 20.5631ZM98.5583 12.9797L100.471 6.80261L90.6385 10.9111L90.3871 11.0165L89.7801 12.9797H87.8307L87.7507 13.237C86.9282 12.8663 86.1167 12.6859 85.2709 12.6859C84.6078 12.6859 83.9781 12.7847 83.399 12.9797H75.6976L74.2402 17.669C74.2421 17.4773 74.2369 17.2812 74.224 17.0827C74.1547 16.0646 73.7996 15.1627 73.2247 14.5449C72.5084 13.7205 71.4981 13.189 70.2222 12.9645C69.2765 12.7745 67.9938 12.6859 66.1848 12.6859C65.1265 12.6859 64.1272 12.7582 63.1295 12.9074C62.0014 13.0828 61.174 13.3131 60.5265 13.6312C59.5663 14.0509 58.7701 14.5612 58.1617 15.1473C57.6253 15.6399 57.1352 16.2674 56.6645 17.0628C56.5682 16.5644 56.4203 16.0848 56.2243 15.6349C55.6006 14.2895 54.1963 12.6859 51.0468 12.6859C50.2689 12.6859 49.5346 12.7844 48.8049 12.9871L48.8074 12.9797H40.3958L39.185 16.8764C39.0446 16.4731 38.8598 16.0817 38.635 15.7113C37.3678 13.7037 35.0277 12.6859 31.6797 12.6859C28.9335 12.6859 26.4893 13.4271 24.4153 14.8891C24.0331 15.16 23.667 15.4504 23.3267 15.7527V15.7279C23.3267 12.8536 22.5518 10.8204 20.9586 9.51219C19.5702 8.31847 17.5233 7.73817 14.7007 7.73817C11.3332 7.73817 8.3691 8.6522 5.89013 10.4557C3.42486 12.2648 1.67119 14.8422 0.678395 18.1156C-0.125201 20.6718 -0.21528 22.8659 0.410347 24.638C1.0806 26.4887 2.18976 27.8076 3.7066 28.5567C5.06984 29.2435 6.92755 29.5913 9.228 29.5913C11.1416 29.5913 12.8158 29.3207 14.2035 28.7865C15.6039 28.2743 16.9302 27.4741 18.1461 26.4079C18.7009 25.9053 19.3109 25.2398 19.8692 24.5285C20.1662 25.9197 20.8904 26.9032 21.4509 27.4868C22.8215 28.8681 24.8591 29.5687 27.5076 29.5687C30.2904 29.5687 32.7639 28.8204 34.8588 27.3437C35.3781 26.9774 35.8639 26.575 36.3044 26.1458L33.8082 34.1786H42.6072L44.2018 29.0785C44.9693 29.404 45.8528 29.5687 46.8292 29.5687C48.878 29.5687 50.7952 28.878 52.5272 27.5152C53.0219 27.1241 53.4874 26.6735 53.9121 26.1751C54.0684 26.8174 54.38 27.4024 54.838 27.9146C55.8054 29.0275 57.3236 29.5687 59.4792 29.5687C60.901 29.5687 62.2339 29.3543 63.441 28.9313C63.6393 28.8606 63.8422 28.7798 64.0448 28.691L64.2381 29.2741H79.413L81.1265 23.7559C81.84 21.4719 82.4935 20.5595 82.818 20.2206C83.1318 19.9381 83.3418 19.8993 83.5219 19.8993C83.5424 19.8993 83.7374 19.9053 84.2124 20.1166L85.3958 20.6434L85.9582 19.9608L87.6124 19.9649L86.8861 22.3032C86.3185 24.0447 86.1271 25.2867 86.284 26.2112C86.448 27.342 87.0531 28.2781 87.9878 28.8463C88.7859 29.3392 89.94 29.5687 91.6192 29.5687C92.8447 29.5687 94.2123 29.4216 95.6851 29.1315L96.4003 28.9906L96.7808 28.915L98.2539 21.6366L95.618 22.4155L96.3729 19.9665H99.2631L101.429 12.9797H98.5583Z" fill="white"/>
<path fill-rule="evenodd" clip-rule="evenodd" d="M13.8919 19.7994L13.53 20.3728C13.0979 21.0565 12.6568 21.5679 12.2144 21.8947C11.6799 22.3181 10.9919 22.5332 10.1702 22.5332C9.50951 22.5332 9.08293 22.3697 8.90223 22.0459C8.84254 21.9413 8.58161 21.3017 9.29759 18.9788C9.75209 17.5664 10.2923 16.5467 10.9048 15.9471C11.6728 15.1726 12.5404 14.7962 13.5568 14.7962C13.9256 14.7962 14.2216 14.8568 14.4354 14.9757C14.6895 15.12 14.8453 15.3064 14.8905 15.8335L14.9868 16.9654H22.7383C21.9733 17.8166 21.3685 18.764 20.9307 19.7994H13.8919ZM31.0678 20.7104C30.7674 21.673 30.3819 22.3553 29.9236 22.7365C29.4458 23.1218 29.0129 23.3016 28.5609 23.3016C28.1595 23.3016 28.0774 23.1601 28.0223 23.065C28.001 23.0294 27.8249 22.6824 28.1929 21.4984C28.4497 20.6196 28.8251 19.9679 29.3065 19.563C29.7645 19.1937 30.2122 19.0216 30.7157 19.0216C31.0859 19.0216 31.1502 19.1322 31.2206 19.2527C31.2285 19.2654 31.4117 19.5779 31.0678 20.7104ZM46.0522 21.5122C46.3148 20.6516 46.6658 20.0305 47.0699 19.7141C47.4562 19.3964 47.8215 19.248 48.2198 19.248C48.4241 19.248 48.4378 19.2731 48.4849 19.3595C48.5254 19.429 48.5774 19.8217 48.296 20.6889C48.0463 21.5475 47.7078 22.1763 47.3169 22.5067C46.9735 22.798 46.66 22.9395 46.3588 22.9395C45.995 22.9395 45.9342 22.8372 45.8942 22.7701C45.8928 22.7671 45.754 22.483 46.0522 21.5122ZM55.9519 21.2923C56.1307 20.6533 56.2517 20.0302 56.313 19.4342L58.648 19.6728C57.7989 19.9632 57.1084 20.3218 56.5499 20.7609C56.3385 20.9258 56.1389 21.1037 55.9519 21.2923ZM98.9365 19.5183L100.824 13.4278H97.9538L99.7636 7.58368L90.7499 11.3499L90.1082 13.4278H88.1579L88.0205 13.8697C87.1027 13.3749 86.2016 13.1341 85.2712 13.1341C84.6289 13.1341 84.0252 13.2329 83.4732 13.4278H76.0248L71.609 27.6377L71.5679 27.3867C71.4694 26.7865 71.4595 26.4878 71.4683 26.3444C71.4787 26.1938 71.5332 25.8727 71.7303 25.2017L73.4971 19.5054C73.7438 18.7554 73.8364 17.9727 73.7802 17.1119C73.7178 16.1929 73.4029 15.3872 72.897 14.8475C72.2489 14.0983 71.3229 13.6132 70.1483 13.4066C69.2229 13.2207 67.9637 13.1341 66.1851 13.1341C65.1488 13.1341 64.1708 13.2047 63.1949 13.3512C62.1085 13.52 61.3186 13.7387 60.7157 14.0371C59.7985 14.4368 59.0425 14.9194 58.4711 15.4697C57.8625 16.0293 57.3105 16.7784 56.7834 17.76L56.3574 18.5533C56.3582 17.5587 56.1772 16.64 55.8161 15.8131C55.2496 14.5909 53.9622 13.1341 51.0471 13.1341C50.031 13.1341 49.0708 13.3153 48.1246 13.6866L48.204 13.4278H40.723L39.0805 18.7132C39.0386 17.7073 38.7623 16.7792 38.2547 15.9438C37.0779 14.0793 34.8659 13.1341 31.68 13.1341C29.0269 13.1341 26.6687 13.8479 24.6705 15.2565C24.0038 15.7292 23.4072 16.2472 22.8821 16.8087V15.7278C22.8821 12.9968 22.1606 11.0771 20.6796 9.8605C19.369 8.73381 17.4132 8.18633 14.701 8.18633C11.4291 8.18633 8.55231 9.07196 6.15056 10.8189C3.76606 12.5692 2.06824 15.0684 1.10447 18.2457C0.329894 20.7095 0.237351 22.8099 0.830123 24.4884C1.45876 26.2241 2.49262 27.4576 3.90186 28.154C5.20568 28.8101 6.99769 29.143 9.22832 29.143C11.0871 29.143 12.708 28.8821 14.0439 28.3686C15.3984 27.8727 16.6803 27.0993 17.8557 26.0688C18.6366 25.3614 19.4993 24.3497 20.1775 23.3543C20.2281 25.1788 21.0545 26.4293 21.7721 27.1765C23.0521 28.4662 24.9821 29.1204 27.5079 29.1204C30.1979 29.1204 32.5855 28.3992 34.6042 26.9763C35.7314 26.1811 36.6653 25.2342 37.3909 24.1514L34.4139 33.7303H42.2812L43.9294 28.4596C44.0286 28.5106 44.1299 28.5583 44.2309 28.6016C44.9756 28.9461 45.8499 29.1204 46.8295 29.1204C48.7768 29.1204 50.6016 28.4618 52.254 27.1619C53.0025 26.5697 53.6712 25.8446 54.2472 25.0012C54.1895 26.2261 54.696 27.086 55.168 27.6137C56.0494 28.6275 57.4597 29.1204 59.4795 29.1204C60.8512 29.1204 62.1351 28.9144 63.2957 28.5078C63.6243 28.3906 63.9643 28.245 64.309 28.0734L64.5587 28.8259H79.0864L80.7018 23.6227C81.4123 21.3494 82.079 20.34 82.5078 19.8992C82.8473 19.5892 83.1605 19.451 83.5222 19.451C83.6109 19.451 83.8738 19.4758 84.3926 19.7064L85.2685 20.0967L85.7501 19.5123L88.2179 19.5178L87.3116 22.4356C86.7643 24.115 86.5778 25.2927 86.7235 26.1392C86.8667 27.1384 87.3973 27.9637 88.2173 28.4626C88.9448 28.9116 90.026 29.1204 91.6195 29.1204C92.8157 29.1204 94.1549 28.9762 95.5997 28.6915L96.4044 28.5329L97.6707 22.2759L95.7136 22.8545C95.4335 22.937 95.1797 23.0038 94.9563 23.0523L96.0455 19.5183H98.9365Z" fill="#0A0A08"/>
<path fill-rule="evenodd" clip-rule="evenodd" d="M20.0832 21.0372C19.4781 22.4375 18.1543 24.1321 17.0334 25.1485C16.0009 26.0534 14.8569 26.7534 13.6238 27.2052C12.3903 27.679 10.9107 27.9055 9.22794 27.9055C7.16405 27.9055 5.57246 27.6115 4.45099 27.0466C3.30734 26.4817 2.49936 25.4874 1.98434 24.0642C1.48932 22.6637 1.57967 20.8334 2.27539 18.6192C3.1729 15.6611 4.72013 13.3997 6.87355 11.8196C9.04833 10.2381 11.6502 9.42389 14.7006 9.42389C17.0774 9.42389 18.8046 9.87622 19.8814 10.8024C21.3391 11.9991 21.6532 13.9654 21.6532 15.7278H16.1142C16.0466 14.9371 15.7547 14.3041 15.0376 13.8976C14.6327 13.6714 14.1399 13.5583 13.5564 13.5583C12.2331 13.5583 11.0443 14.055 10.0351 15.0722C9.27311 15.8183 8.64447 16.993 8.12836 18.5966C7.523 20.562 7.41156 21.9187 7.83704 22.6637C8.24117 23.3877 9.02642 23.7708 10.1698 23.7708C11.2915 23.7708 12.2331 23.4541 12.9738 22.8675C13.5564 22.4375 14.0947 21.7833 14.5662 21.0372H20.0832Z" fill="white"/>
<path fill-rule="evenodd" clip-rule="evenodd" d="M32.2399 21.0822C31.859 22.3027 31.3429 23.1613 30.6918 23.7024C30.0191 24.2455 29.3245 24.5392 28.5608 24.5392C27.8216 24.5392 27.283 24.2455 26.9692 23.7024C26.6325 23.1389 26.6552 22.3027 27.0141 21.1487C27.3504 19.9974 27.8659 19.1617 28.5384 18.5966C29.2114 18.0535 29.9298 17.784 30.7156 17.784C31.4319 17.784 31.9477 18.0535 32.2626 18.5966C32.5988 19.1388 32.5758 19.9756 32.2399 21.0822ZM37.218 16.6083C36.2767 15.1169 34.4379 14.3717 31.6799 14.3717C29.2787 14.3717 27.1702 15.0052 25.3774 16.2693C23.5599 17.5573 22.3481 19.1843 21.7433 21.1487C21.0705 23.2735 21.3843 24.9913 22.6411 26.3014C23.6719 27.3404 25.2865 27.8829 27.5078 27.8829C29.9734 27.8829 32.1051 27.2273 33.8993 25.9624C35.6933 24.6973 36.8826 23.0703 37.5099 21.0822C38.0706 19.32 37.9589 17.8287 37.218 16.6083Z" fill="white"/>
<path fill-rule="evenodd" clip-rule="evenodd" d="M49.4749 21.0372C49.1395 22.1893 48.6686 22.9798 48.1076 23.4542C47.5471 23.9291 46.9645 24.1776 46.3586 24.1776C45.6631 24.1776 45.147 23.9291 44.8554 23.431C44.5416 22.9351 44.5649 22.167 44.8776 21.1487C45.2146 20.0435 45.6856 19.2293 46.292 18.7557C46.8966 18.2582 47.5241 18.0102 48.2196 18.0102C48.8255 18.0102 49.2745 18.2361 49.5439 18.7323C49.8339 19.2293 49.8131 19.9974 49.4749 21.0372ZM54.7025 16.3369C54.0955 15.0276 52.8851 14.3717 51.0468 14.3717C50.1266 14.3717 49.2293 14.5521 48.3326 14.9371C47.6818 15.2077 46.8966 15.7494 45.9552 16.563L46.5376 14.6654H41.6257L36.0859 32.4928H41.3798L43.309 26.3237C43.6671 26.8436 44.1608 27.2273 44.7437 27.4763C45.3269 27.7461 46.0221 27.8829 46.8292 27.8829C48.4887 27.8829 50.0598 27.3172 51.4947 26.1886C52.9524 25.036 54.0065 23.4092 54.679 21.2623C55.2855 19.2971 55.2855 17.6704 54.7025 16.3369Z" fill="white"/>
<path fill-rule="evenodd" clip-rule="evenodd" d="M66.2301 22.2348C66.0272 22.8449 65.7791 23.364 65.4432 23.7485C65.107 24.1321 64.6582 24.4482 64.0758 24.7199C63.4924 24.9913 62.9106 25.1267 62.3033 25.1267C61.7439 25.1267 61.3614 24.9913 61.161 24.7422C60.9362 24.4943 60.8902 24.1776 61.0252 23.794C61.1161 23.4542 61.3614 23.1613 61.7439 22.8896C62.102 22.6185 62.8637 22.37 64.0085 22.0983C64.8611 21.8953 65.6674 21.6917 66.4743 21.4435L66.2301 22.2348ZM72.5534 17.1963C72.5091 16.5415 72.307 16.0216 71.9689 15.6611C71.4996 15.1169 70.8033 14.7783 69.9069 14.6208C69.0108 14.4401 67.7529 14.3717 66.1844 14.3717C65.1968 14.3717 64.2782 14.4401 63.3807 14.575C62.5053 14.7101 61.7647 14.8919 61.2278 15.163C60.4423 15.5017 59.7931 15.9083 59.2994 16.3832C58.7839 16.8573 58.3127 17.5118 57.8637 18.3489L62.7282 18.8454C63.1118 18.2808 63.4924 17.8969 63.8968 17.693C64.4129 17.4442 65.0856 17.3091 65.9598 17.3091C66.632 17.3091 67.0589 17.4219 67.2598 17.6704C67.4411 17.9189 67.4411 18.3489 67.2598 18.9587C66.5214 19.1843 65.8465 19.3876 65.2198 19.5462C64.5695 19.6811 63.223 19.9536 61.138 20.3361C59.3884 20.6299 58.1098 21.1037 57.3032 21.7378C56.4963 22.37 55.935 23.1842 55.6432 24.1553C55.3072 25.2174 55.4649 26.0973 56.0916 26.7981C56.7205 27.5216 57.8412 27.8829 59.4788 27.8829C60.7106 27.8829 61.8545 27.7014 62.8856 27.3404C63.6493 27.069 64.4802 26.6177 65.3534 26.0076C65.3085 26.3687 65.2871 26.6395 65.2871 26.8207C65.2871 27.0025 65.3304 27.2482 65.4432 27.5883H70.3546C70.2659 27.0466 70.2204 26.5951 70.2423 26.257C70.2659 25.9172 70.3781 25.4422 70.5566 24.833L72.3306 19.1168C72.5304 18.5064 72.5978 17.8742 72.5534 17.1963Z" fill="white"/>
<path fill-rule="evenodd" clip-rule="evenodd" d="M76.9272 14.6654H81.8389L81.1886 16.766C81.9517 15.8627 82.6466 15.2306 83.2527 14.8919C83.8576 14.53 84.5297 14.3717 85.2709 14.3717C86.0562 14.3717 86.8176 14.5979 87.602 15.0496L84.8887 18.5745C84.3288 18.3249 83.8806 18.2135 83.5219 18.2135C82.8267 18.2135 82.2197 18.4832 81.6587 19.0042C80.8978 19.7721 80.1785 21.174 79.5299 23.2506L78.1828 27.5883H72.9111L76.9272 14.6654Z" fill="white"/>
<path fill-rule="evenodd" clip-rule="evenodd" d="M97.8084 9.74054L96.2836 14.6654H99.1538L98.0329 18.2808H95.1402L93.7263 22.8675C93.5462 23.4092 93.5018 23.7708 93.5462 23.9515C93.636 24.2231 93.8832 24.3814 94.33 24.3814C94.7131 24.3814 95.2949 24.2681 96.0591 24.0416L95.3639 27.4763C93.996 27.7461 92.7393 27.8829 91.6194 27.8829C90.2964 27.8829 89.3751 27.7257 88.8596 27.4074C88.3429 27.0927 88.0302 26.5951 87.9399 25.9624C87.8268 25.3082 88.0078 24.2681 88.4787 22.8217L89.8896 18.2808H87.9399L89.0611 14.6654H91.0119L91.7525 12.2711L97.8084 9.74054Z" fill="white"/>
</svg>
