<svg width="61" height="45" viewBox="0 0 61 45" fill="none" xmlns="http://www.w3.org/2000/svg">
<g opacity="0.6">
<path opacity="0.8" fill-rule="evenodd" clip-rule="evenodd" d="M20.2434 2.63283C19.8234 2.84798 19.5106 3.24253 19.1349 4.03066C19.0359 4.23858 18.0792 6.18271 17.0093 8.35096C15.9392 10.5192 14.5617 13.3139 13.9481 14.5614C13.3346 15.8089 12.231 18.0446 11.4956 19.5297C10.7604 21.0148 9.64395 23.2749 9.01475 24.5521C8.38566 25.8293 7.83359 26.9229 7.78798 26.9823C7.74247 27.0417 6.71173 29.1316 5.49759 31.6266C3.51407 35.7025 2.34117 38.0824 1.02233 40.7074C0.5305 41.6863 0.484156 42.0302 0.80366 42.3296C1.00532 42.5186 1.23631 42.5377 3.64799 42.5649C6.71402 42.5996 6.76632 42.5863 7.37913 41.6173C7.58569 41.2905 8.80025 38.8847 10.0781 36.2709C11.3559 33.6571 12.4364 31.47 12.4791 31.4106C12.5219 31.3512 13.6036 29.164 14.8828 26.5502C16.1621 23.9364 17.8773 20.4613 18.6943 18.8277C20.0366 16.1439 22.8981 10.3333 25.3431 5.32675C26.3954 3.1719 26.4436 2.90965 25.8439 2.59978C25.5279 2.43636 25.1545 2.41087 23.0779 2.41077C20.8651 2.41077 20.6432 2.42816 20.2434 2.63283ZM34.5596 2.51262C34.4447 2.56133 34.2569 2.70908 34.142 2.84118C33.9352 3.07912 33.9331 3.25355 33.9058 22.3763C33.8855 36.7611 33.9091 41.7482 33.9988 41.9734C34.2261 42.5434 34.4659 42.5893 37.2212 42.5893C39.9543 42.5893 40.1959 42.5449 40.4366 41.9983C40.5243 41.7992 40.5614 40.7695 40.5614 38.5305C40.5614 35.9788 40.5917 35.2706 40.7142 34.9675C40.9873 34.2909 41.1124 34.2728 45.5139 34.2728C49.8123 34.2728 50.053 34.3041 50.4761 34.919C50.5888 35.0826 51.3676 36.6203 52.2069 38.3359C53.0463 40.0516 53.861 41.6254 54.0175 41.8333C54.5595 42.5534 54.7239 42.589 57.5038 42.5891C60.3451 42.5893 60.5962 42.5299 60.6006 41.8561C60.6021 41.6167 57.9786 36.1326 52.4 24.7141C50.9199 21.6845 49.5069 18.7683 49.26 18.2336C49.013 17.699 48.6884 17.0186 48.5385 16.7215C48.3886 16.4245 46.8816 13.3382 45.1895 9.86307C43.4975 6.38793 41.9837 3.37452 41.8256 3.1666C41.2625 2.4261 41.1763 2.41012 37.7953 2.41757C36.1305 2.42124 34.6744 2.46401 34.5596 2.51262ZM41.634 16.9632C41.7969 17.2148 42.6847 18.9645 43.607 20.8514C44.5292 22.7382 45.6539 25.0267 46.1062 25.9368C46.9922 27.7196 47.0922 28.1455 46.709 28.5046C46.5086 28.6924 46.277 28.7132 44.0482 28.7429C42.0122 28.7701 41.5505 28.7476 41.2659 28.608C40.5929 28.2775 40.6168 28.4869 40.5813 22.608C40.5459 16.7342 40.571 16.4129 41.0601 16.4719C41.2513 16.4951 41.43 16.6479 41.634 16.9632ZM26.5341 18.0986C26.1012 18.5018 21.8775 27.1847 21.8775 27.6712C21.8775 28.0312 22.0882 28.3017 22.4398 28.3929C22.5688 28.4264 23.5744 28.4386 24.6745 28.42L26.6747 28.3864L26.9639 28.0868L27.253 27.7873V23C27.253 19.1012 27.2264 18.1796 27.1098 18.0342C26.9218 17.7999 26.8456 17.8084 26.5341 18.0986ZM18.6902 34.8841C18.5734 34.9092 18.3513 35.0371 18.1967 35.1682C17.8169 35.4907 14.8841 41.4763 14.8841 41.9292C14.8841 42.6113 14.7554 42.598 21.0775 42.565L26.7777 42.5353L27.0153 42.2893C27.2523 42.0441 27.253 42.0328 27.253 38.7545V35.4657L26.9637 35.1663L26.6744 34.8668L22.7885 34.8526C20.6514 34.8449 18.8071 34.859 18.6902 34.8841Z" fill="#B6B6CD"/>
</g>
</svg>
