<svg width="182" height="45" viewBox="0 0 182 45" fill="none" xmlns="http://www.w3.org/2000/svg">
<g opacity="0.6">
<g clip-path="url(#clip0)">
<path d="M65.5622 34.5134L55.8449 14.053H55.7679L54.7398 31.3288C54.6253 33.2848 56.0739 33.7084 57.7888 33.7838V34.5134H49.8613V33.7838C52.644 33.7838 52.9852 33.1695 53.1767 29.6767L54.0904 14.7427C54.2445 12.2101 54.1674 11.5182 51.8052 11.3652V10.6733H57.5599L66.7444 30.0226L75.8893 10.6733H81.4921V11.3652C79.6252 11.5182 78.9009 11.5559 78.9758 12.8621L80.1954 30.251C80.4244 33.7838 80.7304 33.7838 83.5108 33.7838V34.5134H73.7165V33.7838C75.5085 33.7838 77.2608 33.2848 77.1089 31.2512L76.0038 14.053H75.9267L66.4384 34.5134H65.5622Z" fill="#49495A"/>
<path d="M91.5177 27.373C90.7935 27.7966 90.1837 28.0649 89.27 28.4486C86.9453 29.4088 86.0691 29.7925 86.0691 31.3648C86.0691 32.7487 87.1742 33.6313 88.3168 33.6313C88.9266 33.6313 89.3845 33.4384 91.5177 31.9414V27.373ZM83.9733 23.8801C83.8963 23.6495 83.8588 23.5342 83.8588 23.3412C83.8588 21.9995 87.0201 18.8881 89.499 18.8881C90.6416 18.8881 92.4336 19.427 93.4991 20.9239C94.0715 21.729 94.0715 22.2302 94.0715 24.2261V29.3689C94.0715 32.4404 94.0715 33.1323 95.0621 33.1323C95.4826 33.1323 95.9757 33.0924 96.929 32.2874L97.1205 32.8618C95.0621 34.5516 93.9944 34.9752 93.3472 34.9752C91.7841 34.9752 91.6322 33.2476 91.5948 32.6333C88.964 34.82 88.2023 34.9752 87.1742 34.9752C84.964 34.9752 83.6299 33.7089 83.6299 31.8261C83.6299 29.4842 85.6883 28.6792 88.1253 28.0649C88.9266 27.872 90.1837 27.4107 91.5177 26.6057V23.5719C91.5177 22.4985 91.5177 21.8842 90.8705 21.1169C90.3752 20.5004 89.5739 20.0036 88.7351 20.0036C87.4781 20.0036 86.3729 21.077 86.3729 21.8842C86.3729 22.1148 86.4103 22.2679 86.5644 22.6138L83.9733 23.8801Z" fill="#49495A"/>
<path d="M101.393 31.1743C101.393 33.2856 101.888 33.7845 103.946 33.7845V34.5142H96.2852V33.7845C97.9627 33.7845 98.8389 32.862 98.8389 31.365V23.3037C98.8389 21.8844 98.687 21.6161 97.6963 21.4231L96.3996 21.1548V20.5405L100.783 18.9283H101.393V21.9221C103.946 20.3099 106.079 18.8883 107.946 18.8883C110.537 18.8883 112.026 20.8088 112.026 24.6477C112.026 29.755 111.757 30.7507 111.72 32.2499C111.682 33.2856 112.292 33.7845 113.855 33.7845H114.692V34.5142H106.498V33.7845C107.603 33.7468 108.252 33.4785 108.671 33.0549C109.395 32.3253 109.472 29.5244 109.472 24.417C109.472 21.3455 107.986 20.3853 106.46 20.3853C105.241 20.3853 103.374 21.4609 101.393 22.8425V31.1743Z" fill="#49495A"/>
<path d="M118.43 31.4806C118.43 33.2858 118.925 33.7848 120.907 33.7848V34.5144H113.285V33.7848C115.381 33.6695 115.876 32.9398 115.876 30.8286V12.4395C115.876 11.5946 115.724 11.2886 114.923 11.1732L113.285 10.9426V10.2906L117.82 8.71604H118.43V21.3081C120.946 19.8111 122.776 18.8886 124.717 18.8886C127.652 18.8886 128.949 20.7315 128.949 24.608C128.949 28.1031 128.872 30.252 128.757 32.3255C128.834 33.3612 129.407 33.7848 131.654 33.7848V34.5144H123.423V33.7848C124.414 33.7848 125.138 33.5918 125.556 33.1705C126.243 32.4786 126.395 30.8286 126.395 25.1092C126.395 20.9998 124.185 20.4631 122.928 20.4631C121.671 20.4631 120.297 21.0774 118.43 22.2683V31.4806Z" fill="#49495A"/>
<path d="M141.643 23.7647C141.222 21.2698 139.699 19.6176 137.869 19.6176C136.612 19.6176 134.708 20.1942 133.83 23.7647H141.643ZM133.715 24.7626C133.64 25.3392 133.563 25.8759 133.563 26.3749C133.563 30.3667 136.346 33.0546 139.355 33.0546C141.262 33.0546 142.748 32.2873 144.196 30.5597L144.615 31.021C143.014 33.0546 140.615 34.9751 137.832 34.9751C134.096 34.9751 131.201 31.5576 131.201 27.1045C131.201 23.0351 133.907 18.888 138.556 18.888C143.701 18.888 143.587 22.6137 144.844 23.88V24.7626H133.715Z" fill="#49495A"/>
<path d="M148.849 10.0597C149.764 10.0597 150.526 10.7117 150.526 11.5189C150.526 12.324 149.764 12.9782 148.849 12.9782C147.935 12.9782 147.211 12.324 147.211 11.5189C147.211 10.7117 147.935 10.0597 148.849 10.0597ZM150.412 31.5957C150.412 32.9396 151.136 33.7845 153.155 33.7845V34.5142H144.694V33.7845C147.019 33.7845 147.858 33.0172 147.858 30.9814V23.266C147.858 21.7691 147.666 21.5762 146.676 21.3854L144.886 21.0395V20.4252L149.839 18.6976H150.412V31.5957Z" fill="#49495A"/>
<path d="M157.922 31.4039C157.922 33.3998 158.455 33.7857 160.591 33.7857V34.5131H152.663V33.7857C154.873 33.7857 155.369 32.7855 155.369 30.8295V23.3049C155.369 21.8057 155.14 21.462 154.264 21.3466L152.778 21.1537V20.5017L157.35 18.8894H157.922V21.9609C160.665 20.0027 163.182 18.8894 164.705 18.8894C166.572 18.8894 167.946 20.0803 168.327 21.9609C170.88 20.3487 173.203 18.8894 175.072 18.8894C177.815 18.8894 178.883 21.0007 178.883 24.6865C178.883 27.1415 178.883 29.7162 178.768 32.0559C178.768 32.8631 179.226 33.7857 180.787 33.7857H182.006V34.5131H173.432V33.7857H173.775C174.88 33.7857 175.376 33.5927 175.719 33.2468C176.291 32.6724 176.329 30.4436 176.329 27.7957V24.8018C176.329 21.8456 175.338 20.4241 173.471 20.4241C172.289 20.4241 170.764 21.0007 168.401 22.5752V31.4039C168.401 33.3244 168.859 33.7857 170.764 33.7857V34.5131H162.953V33.7857C165.086 33.7857 165.848 33.0161 165.848 30.8295V23.7262C165.848 21.3089 164.362 20.4241 163.028 20.4241C161.962 20.4241 160.514 20.9231 157.922 22.6529V31.4039Z" fill="#49495A"/>
<path d="M1.52344 22.7327C1.52344 34.4 10.9127 43.8562 22.4947 43.8562C34.0766 43.8562 43.4659 34.4 43.4659 22.7327C43.4659 11.0655 34.0766 1.60703 22.4947 1.60703C10.9127 1.60703 1.52344 11.0655 1.52344 22.7327Z" fill="#6E420B"/>
<path d="M1.05566 22.2646C1.05566 33.9296 10.4449 43.3881 22.0269 43.3881C33.6088 43.3881 43.0003 33.9296 43.0003 22.2646C43.0003 10.5973 33.6088 1.13889 22.0269 1.13889C10.4449 1.13889 1.05566 10.5973 1.05566 22.2646Z" fill="#FFFDE9"/>
<path d="M1.36523 22.4984C1.36523 34.1701 10.7545 43.6241 22.3386 43.6241C33.9206 43.6241 43.3077 34.1701 43.3077 22.4984C43.3077 10.8334 33.9206 1.37491 22.3386 1.37491C10.7545 1.37491 1.36523 10.8334 1.36523 22.4984Z" fill="url(#paint0_linear)"/>
<path d="M2.31152 22.4985C2.31152 33.6423 11.2759 42.6727 22.3383 42.6727C33.3985 42.6727 42.3651 33.6423 42.3651 22.4985C42.3651 11.3568 33.3985 2.32411 22.3383 2.32411C11.2759 2.32411 2.31152 11.3568 2.31152 22.4985Z" fill="url(#paint1_linear)"/>
<path d="M2.30957 22.4987C2.30957 33.6425 11.2762 42.673 22.3386 42.673C33.3987 42.673 42.3653 33.6425 42.3653 22.4987C42.3653 11.357 33.3987 2.32435 22.3386 2.32435C11.2762 2.32435 2.30957 11.357 2.30957 22.4987Z" stroke="#FED301" stroke-width="0.068"/>
<path d="M22.3132 38.7316C13.4149 38.7316 6.19847 31.4642 6.19847 22.4981C6.19847 13.5386 13.4149 6.27127 22.3132 6.27127C30.5643 6.27127 38.4258 13.8669 38.4258 22.4981C38.4258 31.4642 31.2094 38.7316 22.3132 38.7316ZM22.3132 4.21769C12.2899 4.21769 4.16211 12.4032 4.16211 22.4981C4.16211 32.5975 12.2899 40.7852 22.3132 40.7852C32.3343 40.7852 40.46 32.5975 40.46 22.4981C40.46 12.4032 32.3343 4.21769 22.3132 4.21769Z" fill="black"/>
<path d="M22.3132 38.7316C13.4149 38.7316 6.19847 31.4642 6.19847 22.4981C6.19847 13.5386 13.4149 6.27127 22.3132 6.27127C30.5643 6.27127 38.4258 13.8669 38.4258 22.4981C38.4258 31.4642 31.2094 38.7316 22.3132 38.7316ZM22.3132 4.21769C12.2899 4.21769 4.16211 12.4032 4.16211 22.4981C4.16211 32.5975 12.2899 40.7852 22.3132 40.7852C32.3343 40.7852 40.46 32.5975 40.46 22.4981C40.46 12.4032 32.3343 4.21769 22.3132 4.21769Z" stroke="#F0E9B6" stroke-width="0.11"/>
<path d="M0.0800781 22.4986C0.0800781 34.8844 10.0439 44.9238 22.3391 44.9238C34.63 44.9238 44.596 34.8844 44.596 22.4986C44.596 10.1172 34.63 0.0777017 22.3391 0.0777017C10.0439 0.0777017 0.0800781 10.1172 0.0800781 22.4986ZM2.75266 22.4986C2.75266 11.6031 11.5233 2.77002 22.3391 2.77002C33.155 2.77002 41.9234 11.6031 41.9234 22.4986C41.9234 33.3941 33.155 42.2293 22.3391 42.2293C11.5233 42.2293 2.75266 33.3941 2.75266 22.4986Z" fill="#49495A"/>
<path d="M22.3391 42.2279C11.5211 42.2279 2.75266 33.3948 2.75266 22.4993C2.75266 11.6038 11.5211 2.76854 22.3391 2.76854C33.155 2.76854 41.9234 11.6038 41.9234 22.4993C41.9234 33.3948 33.155 42.2279 22.3391 42.2279ZM22.3391 0.0762696C10.0439 0.0762696 0.0800781 10.1157 0.0800781 22.4993C0.0800781 34.8829 10.0439 44.9224 22.3391 44.9224C34.6322 44.9224 44.5982 34.8829 44.5982 22.4993C44.5982 10.1157 34.6322 0.0762696 22.3391 0.0762696Z" stroke="#35354D" stroke-width="0.071"/>
<path d="M33.9043 11.221C36.7794 14.1261 38.9941 17.9938 38.9941 22.4247C38.9941 25.2966 37.2417 28.3703 35.9318 30.7056C37.2417 28.3703 38.6176 25.1968 38.6176 22.3249C38.6176 17.8962 36.3986 14.033 33.5234 11.1234L33.9043 11.221Z" fill="#FFFCDB"/>
<path d="M31.5314 35.6383C31.5314 35.6383 31.0427 35.9288 31.0515 36.0241C28.511 37.7384 25.7966 38.4015 22.5098 38.4015C26.8863 38.8029 29.8605 37.235 30.62 36.6606C31.3795 36.0885 31.5314 35.6383 31.5314 35.6383Z" fill="#FFFCDB"/>
<path d="M7.3623 22.3255C7.3623 30.6374 14.0526 37.377 22.3059 37.377C28.8773 37.377 37.3882 31.9303 37.3882 22.3255C37.3882 14.4039 29.7799 7.27628 22.3059 7.27628C14.0526 7.27628 7.3623 14.0136 7.3623 22.3255Z" fill="url(#paint2_radial)"/>
<path d="M23.4453 22.7832C23.4453 22.7832 21.6995 17.2678 19.7534 9.35949C20.8013 9.12663 21.7435 9.00244 22.8641 9.00244C24.2752 9.00244 25.6467 9.19981 26.9434 9.57238C25.0171 17.3631 23.4453 22.7832 23.4453 22.7832ZM36.7642 18.5185C36.2534 16.5625 35.3684 14.764 34.1819 13.2027C32.4383 10.9008 30.0541 9.12441 27.2934 8.13532C25.7348 7.57868 24.0529 7.27486 22.3049 7.27486C21.235 7.27486 20.1915 7.38796 19.1898 7.60308C16.8166 8.10871 14.6592 9.18207 12.8452 10.6724C9.49896 13.4312 7.36133 17.6248 7.36133 22.3241C7.36133 24.2801 7.73118 26.1474 8.40483 27.8594C8.09222 26.6441 7.9227 25.3668 7.9227 24.0539C7.9227 19.8381 9.64205 16.0303 12.4115 13.2981C11.7533 17.4097 10.7692 24.3023 10.2497 31.2215C11.6014 33.0821 13.3757 34.6145 15.4165 35.6879V35.7455C15.6036 32.6474 16.0417 26.1296 16.8783 17.8488C16.8783 17.8488 19.2118 29.4096 21.6269 36.9852H24.9379C28.0243 27.8373 30.0673 18.044 30.0673 18.044C30.785 25.1428 30.9325 31.064 31.1548 34.5302C33.1802 32.9357 35.6414 29.6447 36.6365 27.2207C36.1544 22.1201 35.7471 19.1351 35.2187 15.7087C35.9298 16.7821 36.2138 17.2811 36.7642 18.5185Z" fill="#242440"/>
<path d="M2.44824 22.4986C2.44824 33.5493 11.3378 42.5021 22.3055 42.5021C33.2666 42.5021 42.1584 33.5493 42.1584 22.4986C42.1584 11.8492 32.4917 2.49943 22.3055 2.49943C11.3378 2.49943 2.44824 11.4567 2.44824 22.4986ZM7.36193 22.3256C7.36193 13.9871 14.0236 7.27631 22.3055 7.27631C29.8059 7.27631 37.3306 13.8961 37.3878 22.3256C37.4582 31.9525 28.9011 37.377 22.3055 37.377C14.0236 37.377 7.36193 30.6663 7.36193 22.3256Z" fill="url(#paint3_linear)"/>
<path d="M22.3048 37.3765C14.025 37.3765 7.3612 30.6658 7.3612 22.325C7.3612 13.9865 14.025 7.27581 22.3048 7.27581C29.8052 7.27581 37.3298 13.8978 37.3871 22.325C37.4575 31.9542 28.9004 37.3765 22.3048 37.3765ZM22.3048 2.50113C11.3371 2.50113 2.44531 11.4562 2.44531 22.498C2.44531 33.5488 11.3371 42.5038 22.3048 42.5038C33.2659 42.5038 42.1598 33.5488 42.1598 22.498C42.1598 11.8487 32.491 2.50113 22.3048 2.50113Z" stroke="#35354D" stroke-width="0.129"/>
<path d="M23.1381 22.3278C23.1381 22.3278 21.0951 16.2779 18.9024 7.76419L18.0549 6.886L12.0845 9.07039C12.0845 9.07039 9.84119 20.3518 9.00684 31.6309L13.6409 35.6871L14.592 35.2724C14.7945 32.1077 15.2678 25.672 16.144 17.5331C16.144 17.5331 18.6383 29.2802 21.0159 36.3303L24.4524 36.3857C26.8277 29.3401 29.9428 17.7305 29.9428 17.7305C31.2043 29.431 31.6248 37.6099 31.6248 37.6099L35.9352 30.704C35.9837 29.6993 36.1047 28.8278 36.1047 28.8278C35.5918 23.9977 34.9027 17.0563 34.359 13.783C34.359 13.783 33.5775 11.7095 33.3661 11.0752C32.9721 9.86215 33.6303 9.22124 33.6303 9.22124L27.7634 5.82818C25.3858 15.4175 23.1381 22.3278 23.1381 22.3278Z" fill="#B6B6CD"/>
<path d="M3.3877 22.3255C3.3877 32.9682 11.947 41.5928 22.5097 41.5928C33.0789 41.5928 41.6404 32.9682 41.6404 22.3255C41.6404 12.0776 32.3018 3.05821 22.5097 3.05821C11.947 3.05821 3.3877 11.6828 3.3877 22.3255ZM18.0539 6.88597C19.4672 6.47347 20.962 6.24952 22.5097 6.24952C24.0639 6.24952 25.5543 6.47347 26.9698 6.88597L27.3859 7.03452C24.7816 15.5926 22.6197 23.2192 22.6197 23.2192C22.6197 23.2192 20.3302 15.8565 18.0539 6.88597ZM6.55342 22.3255C6.55342 17.8968 8.3344 13.885 11.2073 10.9798L11.6542 10.6627C11.0114 14.4882 9.56943 23.3944 8.93541 30.9745C7.62994 28.6415 6.55342 25.1952 6.55342 22.3255ZM35.7757 31.0144C35.1483 23.5785 33.8671 14.6013 33.2198 10.8512C33.2044 10.7492 33.2903 10.8667 33.3761 10.9842C33.4576 11.0973 33.5368 11.2149 33.5236 11.124C36.3988 14.0314 38.6178 17.8968 38.6178 22.3255C38.6178 25.1952 37.2419 28.3687 35.9342 30.7039C35.9276 30.6507 35.8902 30.7549 35.855 30.8592C35.8264 30.9457 35.7956 31.0299 35.7823 31.0299C35.7801 31.0299 35.7779 31.0255 35.7757 31.0144ZM13.6399 35.6871C13.8117 32.8484 14.362 25.2063 15.3065 16.4109C15.3065 16.4109 18.9125 28.7457 21.2945 35.7958H24.0551C27.0953 26.2065 29.8141 16.5817 29.8141 16.5817C30.6903 24.6763 30.7564 31.4757 30.9589 34.6559C30.9699 34.8178 31.5313 35.6383 31.5313 35.6383C31.5313 35.6383 31.0426 35.9288 31.0514 36.0242C28.5087 37.7385 25.7965 38.4015 22.5097 38.4015C19.2295 38.4015 16.1782 37.4014 13.6399 35.6871Z" fill="url(#paint4_linear)"/>
<path d="M8.93494 30.9728C9.73628 22.7474 11.2047 13.7591 11.6538 10.6632L10.9207 12.6303C10.2822 16.3383 9.33561 22.3925 8.74121 28.7418L8.93494 30.9728Z" fill="#DCDCEE"/>
<path d="M15.3076 16.4123C15.3076 16.4123 18.9136 28.747 21.2934 35.7949L21.0138 36.3315C19.2967 31.2419 17.0468 23.5554 15.9262 19.6745C15.6863 18.6965 15.5102 17.7784 15.5102 17.7784L15.3076 16.4123Z" fill="#E2E2E1"/>
<path d="M22.6211 23.2189C22.6211 23.2189 25.0009 15.8517 27.3851 7.03418L26.7026 7.94565C25.0493 14.3503 23.4863 19.3357 22.8324 21.3538L22.6211 23.2189Z" fill="#49495A"/>
<path d="M29.8158 16.5812C30.7647 25.3744 31.3569 32.8014 31.5308 35.6378L30.9606 34.6576C30.7514 31.524 30.3332 25.9842 29.6133 19.0672L29.8158 16.5812Z" fill="#B6B6CD"/>
<path d="M27.3857 7.03455C26.3467 6.54 24.6383 5.97449 22.3048 6.05211C20.7549 6.10312 19.6916 6.22731 18.0537 6.88818C19.4671 6.47347 20.9641 6.2517 22.5095 6.2517C24.0637 6.2517 25.9702 6.61984 27.3857 7.03455Z" fill="#EBEBEB"/>
<path d="M9.28998 30.1254L8.93555 30.9725C9.73908 22.7471 11.2053 13.7611 11.6544 10.6629C11.6544 10.6629 10.9873 17.3559 9.28998 30.1254Z" fill="#DCDCEE"/>
<path d="M16.0068 18.989L21.1187 35.2913C19.9849 29.0973 16.0068 18.989 16.0068 18.989Z" fill="#F5F5F5"/>
<path d="M30.1475 19.0274C30.7727 25.594 31.4705 34.7552 31.4705 34.7552C31.8514 26.8425 30.1475 19.0274 30.1475 19.0274Z" fill="#CFCFCF"/>
<path d="M3.96695 17.2163C3.96695 17.2163 4.05061 17.2917 3.96695 17.2163C5.9813 12.3152 7.4871 10.4124 10.3292 7.62923L9.54107 8.26571C5.41552 11.6255 4.14527 16.0808 3.96695 17.2163C3.78643 18.3518 3.96695 17.2163 3.96695 17.2163Z" fill="#EBEBEB"/>
<path d="M27.3543 7.63654C26.7863 12.4024 22.6211 23.218 22.6211 23.218L27.3543 7.63654Z" fill="#EFEFEF"/>
<path d="M13.7362 34.7987C14.1148 28.8886 15.1561 18.115 15.1561 18.115C13.4544 28.6978 13.7362 34.7987 13.7362 34.7987Z" fill="#85859C"/>
<path d="M35.643 30.7051C34.7316 19.2175 33.8818 15.1192 33.8818 15.1192C33.8818 15.1192 34.8263 26.4626 35.0178 27.6979C35.2049 28.942 35.643 30.7051 35.643 30.7051Z" fill="#85859C"/>
<path d="M24.0566 35.7953C25.2807 32.1317 29.2521 19.0695 29.2521 19.0695C25.7562 28.8894 24.0566 35.7953 24.0566 35.7953Z" fill="#EDEDF6"/>
<path d="M0.749023 22.5362C0.749023 34.6293 10.4157 44.4292 22.341 44.4292C34.2664 44.4292 43.9309 34.6293 43.9309 22.5362C43.9309 10.4476 34.2664 0.64319 22.341 0.64319C10.4157 0.64319 0.749023 10.4476 0.749023 22.5362ZM2.14254 22.5362C2.14254 11.2282 11.1862 2.05807 22.341 2.05807C33.4959 2.05807 42.5351 11.2282 42.5351 22.5362C42.5351 33.8509 33.4959 43.0143 22.341 43.0143C11.1862 43.0143 2.14254 33.8509 2.14254 22.5362Z" fill="url(#paint5_linear)"/>
<path d="M22.3398 43.0152C11.185 43.0152 2.14133 33.8495 2.14133 22.537C2.14133 11.2268 11.185 2.0589 22.3398 2.0589C33.4947 2.0589 42.5361 11.2268 42.5361 22.537C42.5361 33.8495 33.4947 43.0152 22.3398 43.0152ZM22.3398 0.644012C10.4145 0.644012 0.75 10.4484 0.75 22.537C0.75 34.6279 10.4145 44.4301 22.3398 44.4301C34.2652 44.4301 43.9297 34.6279 43.9297 22.537C43.9297 10.4484 34.2652 0.644012 22.3398 0.644012Z" stroke="#85859C" stroke-width="0.068"/>
<mask id="path-41-inside-1" fill="white">
<path d="M21.2315 0.487932C15.3668 0.860503 9.99519 3.53281 6.1074 8.01033C2.2174 12.4923 0.328537 18.0498 0.693981 24.0132C0.698384 24.0819 0.790838 24.694 0.861285 24.6896C0.927329 24.6873 0.89871 24.2594 0.892106 24.1906C0.533266 18.2938 2.45075 12.6076 6.29452 8.18108C10.1383 3.75236 15.4328 0.960308 21.2337 0.59439C21.302 0.589954 21.6014 0.598812 21.597 0.525629C21.5948 0.490146 21.5111 0.479066 21.4252 0.479066C21.346 0.479066 21.2623 0.487932 21.2315 0.487932Z"/>
</mask>
<path d="M21.2315 0.487932C15.3668 0.860503 9.99519 3.53281 6.1074 8.01033C2.2174 12.4923 0.328537 18.0498 0.693981 24.0132C0.698384 24.0819 0.790838 24.694 0.861285 24.6896C0.927329 24.6873 0.89871 24.2594 0.892106 24.1906C0.533266 18.2938 2.45075 12.6076 6.29452 8.18108C10.1383 3.75236 15.4328 0.960308 21.2337 0.59439C21.302 0.589954 21.6014 0.598812 21.597 0.525629C21.5948 0.490146 21.5111 0.479066 21.4252 0.479066C21.346 0.479066 21.2623 0.487932 21.2315 0.487932Z" fill="url(#paint6_linear)"/>
<path d="M6.1074 8.01033L2.30714 4.71199L2.30783 4.71119L6.1074 8.01033ZM0.693981 24.0132L-4.32775 24.3348L-4.32859 24.321L0.693981 24.0132ZM0.861285 24.6896L0.545094 19.6675L0.618701 19.6629L0.692411 19.6604L0.861285 24.6896ZM0.892106 24.1906L-4.11683 24.6718L-4.12525 24.5842L-4.1306 24.4963L0.892106 24.1906ZM6.29452 8.18108L10.0948 11.4794L10.094 11.4803L6.29452 8.18108ZM21.2337 0.59439L21.5601 5.6158L21.5505 5.61641L21.2337 0.59439ZM21.597 0.525629L26.6193 0.214028L26.6199 0.223436L21.597 0.525629ZM21.5505 5.50981C17.044 5.7961 12.9212 7.838 9.90696 11.3095L2.30783 4.71119C7.06918 -0.772374 13.6896 -4.07509 20.9125 -4.53394L21.5505 5.50981ZM9.90765 11.3087C6.88284 14.7938 5.43164 19.056 5.71656 23.7054L-4.32859 24.321C-4.77456 17.0436 -2.44805 10.1908 2.30714 4.71199L9.90765 11.3087ZM5.71569 23.6916C5.69985 23.4442 5.66798 23.27 5.68463 23.3773C5.6863 23.3881 5.68762 23.3943 5.68562 23.3843C5.6844 23.3783 5.67906 23.352 5.6689 23.3101C5.66063 23.276 5.63711 23.1811 5.59534 23.0515C5.57255 22.9808 5.45904 22.6216 5.21665 22.192C5.10433 21.9929 4.8138 21.5031 4.28612 21.0093C3.78333 20.5388 2.48939 19.5451 0.545094 19.6675L1.17748 29.7116C-0.775625 29.8346 -2.07855 28.8366 -2.59043 28.3576C-3.12721 27.8553 -3.42695 27.3527 -3.54855 27.1372C-3.80949 26.6747 -3.94182 26.2678 -3.98325 26.1393C-4.0906 25.8063 -4.15316 25.5058 -4.17988 25.3733C-4.2224 25.1624 -4.30302 24.7206 -4.32773 24.3348L5.71569 23.6916ZM0.692411 19.6604C-0.795363 19.7103 -1.91925 20.3905 -2.60839 21.0506C-3.22997 21.6461 -3.54819 22.2588 -3.69215 22.5728C-3.97575 23.1912 -4.05653 23.7142 -4.0765 23.8417C-4.13128 24.1914 -4.12803 24.447 -4.12804 24.4531C-4.12824 24.534 -4.12588 24.5777 -4.11683 24.6718L5.90104 23.7094C5.91669 23.8723 5.93666 24.1644 5.93592 24.477C5.93563 24.5989 5.93406 24.9662 5.86628 25.399C5.83981 25.568 5.75049 26.1253 5.45583 26.7678C5.31665 27.0713 4.13086 29.6146 1.03016 29.7187L0.692411 19.6604ZM-4.1306 24.4963C-4.56872 17.2966 -2.22105 10.3129 2.49507 4.88181L10.094 11.4803C7.12255 14.9023 5.63525 19.291 5.91481 23.885L-4.1306 24.4963ZM2.49425 4.88275C7.15138 -0.483106 13.6678 -3.97035 20.9169 -4.42763L21.5505 5.61641C17.1979 5.89097 13.1252 7.98782 10.0948 11.4794L2.49425 4.88275ZM20.9074 -4.42701C21.057 -4.43674 21.33 -4.44175 21.1945 -4.43837C21.1922 -4.43831 21.1721 -4.43782 21.142 -4.43639C21.113 -4.43502 21.0595 -4.4321 20.9895 -4.42577C20.9472 -4.42195 20.5057 -4.3894 19.9566 -4.20589C19.7066 -4.12234 19.0156 -3.87547 18.3106 -3.27115C17.4875 -2.56566 16.4545 -1.15969 16.574 0.827822L26.6199 0.223436C26.7405 2.22925 25.6991 3.65095 24.8602 4.36997C24.1394 4.98783 23.4252 5.24605 23.1467 5.33914C22.5406 5.5417 22.0207 5.58604 21.8956 5.59735C21.6874 5.61617 21.5126 5.62082 21.4452 5.6225C21.2345 5.62775 21.4446 5.6233 21.5601 5.61579L20.9074 -4.42701ZM16.5746 0.837228C16.7125 3.05936 18.1622 4.29312 18.884 4.7514C19.5813 5.19417 20.2122 5.34738 20.4346 5.39756C20.9434 5.51242 21.3365 5.51106 21.4252 5.51106V-4.55293C21.5998 -4.55293 22.0776 -4.54874 22.6504 -4.41948C22.9046 -4.36209 23.5622 -4.19947 24.2786 -3.74463C25.0193 -3.27429 26.4803 -2.02585 26.6193 0.214028L16.5746 0.837228ZM21.4252 5.51106C21.4961 5.51106 21.5505 5.50915 21.5805 5.50787C21.5966 5.50718 21.6093 5.50652 21.6175 5.50606C21.6256 5.5056 21.6308 5.50527 21.6312 5.50525C21.6315 5.50523 21.6309 5.50527 21.629 5.50539C21.6267 5.50554 21.6246 5.50568 21.6199 5.506C21.6136 5.50642 21.5949 5.50767 21.5748 5.50891C21.5555 5.51011 21.5176 5.5124 21.4715 5.51447C21.4474 5.51555 21.4156 5.51683 21.3784 5.51787C21.342 5.51888 21.2915 5.51993 21.2315 5.51993V-4.54407C21.1753 -4.54407 21.1291 -4.54309 21.0974 -4.5422C21.0648 -4.54129 21.038 -4.54021 21.0194 -4.53937C20.9841 -4.53778 20.9583 -4.53619 20.9524 -4.53582C20.9458 -4.5354 20.9417 -4.53513 20.951 -4.53575C20.9568 -4.53613 20.9724 -4.53718 20.9892 -4.53825C21.0235 -4.54044 21.0816 -4.544 21.1512 -4.54697C21.2201 -4.54991 21.3147 -4.55293 21.4252 -4.55293V5.51106Z" fill="#85859C" mask="url(#path-41-inside-1)"/>
<path d="M42.3764 21.5139C42.7045 26.8452 40.9697 31.988 37.4936 35.9887C34.0175 39.9938 29.2293 42.5154 23.9876 42.8503C23.9259 42.8525 23.6507 42.8436 23.6573 42.9079C23.6595 42.9745 23.9259 42.9478 23.9898 42.9434C29.2931 42.6063 34.1495 40.1912 37.6631 36.144C41.1788 32.0922 42.8872 27.067 42.5548 21.6758C42.5526 21.6093 42.4667 21.0615 42.4051 21.0615C42.3434 21.0637 42.372 21.4518 42.3764 21.5139Z" fill="url(#paint7_linear)"/>
<path d="M43.7804 21.1856C43.71 21.1901 43.699 21.3653 43.7056 21.434C44.06 27.1734 42.1755 32.7132 38.3956 37.0243C34.6179 41.3378 29.4532 43.9347 23.7514 44.2917C23.6854 44.2962 23.5797 44.3294 23.5841 44.4004C23.5863 44.4691 23.67 44.4736 23.736 44.4691C29.5017 44.1076 34.761 41.5529 38.5827 37.1885C42.4045 32.8263 44.2185 27.1689 43.8597 21.3652C43.8553 21.2943 43.8486 21.1856 43.787 21.1856C43.7848 21.1856 43.7826 21.1856 43.7804 21.1856Z" fill="url(#paint8_linear)"/>
<path d="M0.656286 22.6427C0.717927 28.5617 3.08671 34.1059 7.32234 38.2507C11.5624 42.3956 16.9736 44.5889 22.9043 44.5312C22.9748 44.5312 23.5868 44.4691 23.5846 44.4004C23.5846 44.3294 23.1553 44.3405 23.0893 44.3405C17.2267 44.3937 11.6879 42.1694 7.50066 38.0711C3.31126 33.9706 0.82359 28.4996 0.761949 22.6493C0.759747 22.5761 0.781773 22.2745 0.711326 22.2745C0.64308 22.2767 0.654084 22.5739 0.656286 22.6427Z" fill="url(#paint9_linear)"/>
<path d="M23.9873 2.06917C23.9829 2.13126 24.3704 2.17562 24.4342 2.18449C29.7948 2.85423 34.594 5.54429 37.9513 9.75568C40.9298 13.4925 42.5589 18.0432 42.4555 22.7181C42.4445 23.3102 42.5501 23.1927 42.5611 22.5362C42.647 17.8746 41.106 13.3483 38.134 9.61593C34.7371 5.35353 30.0458 2.71226 24.6214 2.03587C24.595 2.03143 24.4651 2.02477 24.333 2.02477C24.1657 2.02477 23.9917 2.0359 23.9873 2.06917Z" fill="#35354D"/>
<path d="M7.51628 36.7028C11.1443 40.6503 15.9237 42.8923 21.2799 43.1296C21.3437 43.1319 21.8985 43.1052 21.9007 43.0431C21.9051 42.9788 21.5198 42.9677 21.4538 42.9677C16.1615 42.7305 11.2676 40.4507 7.6836 36.5476C4.0974 32.6444 2.08745 27.7855 2.312 22.4985C2.08525 27.8454 3.88825 32.7531 7.51628 36.7028Z" fill="url(#paint10_linear)"/>
<path d="M21.4597 0.499073C21.3893 0.503508 21.277 0.507968 21.2814 0.578934C21.2836 0.645464 21.4575 0.658778 21.5257 0.656561C27.232 0.430356 32.685 2.45285 36.8788 6.3582C41.0704 10.2636 43.5316 15.5239 43.7584 21.2722C43.7606 21.3409 43.7914 21.4474 43.8597 21.4452C43.9279 21.4407 43.9389 21.3609 43.9345 21.2921C43.7056 15.4774 41.2883 10.1238 37.0461 6.17635C33.0262 2.43511 27.8131 0.481342 22.3689 0.481342C22.0651 0.481342 21.7635 0.487983 21.4597 0.499073Z" fill="url(#paint11_linear)"/>
<path d="M19.2613 42.7405C8.571 41.0839 1.20048 30.2083 2.84498 19.4392C4.48948 8.66791 14.7527 0.602182 25.4453 2.25658C14.4203 0.548957 4.09761 8.22881 2.39147 19.406C0.683134 30.5831 8.23638 41.0306 19.2613 42.7405Z" fill="#49495A"/>
<path d="M42.3243 25.6318C44.0304 14.4547 36.4794 4.00715 25.4522 2.29731C36.1448 3.95614 43.5263 14.7563 41.8818 25.5254C40.2395 36.2945 29.9631 44.44 19.2705 42.7812C30.2955 44.4888 40.6182 36.8134 42.3243 25.6318Z" fill="#EDEDF6"/>
<path d="M10.7519 5.46882C6.35335 8.51814 3.46502 12.9668 2.46335 18.2716C2.45014 18.3314 2.39731 18.8903 2.45895 18.9014C2.52059 18.9125 2.58883 18.531 2.59983 18.4689C3.58829 13.2241 6.52946 8.67559 10.8796 5.65954C15.2297 2.64348 20.4868 1.3905 25.6492 2.37294C25.7109 2.38402 25.9729 2.45723 25.9861 2.39513C25.9949 2.33304 25.7307 2.29088 25.6691 2.27758C24.4384 2.0425 23.199 1.92721 21.9706 1.92721C17.9969 1.92721 14.1135 3.14025 10.7519 5.46882Z" fill="#49495A"/>
</g>
</g>
<defs>
<linearGradient id="paint0_linear" x1="6.92599" y1="8.32455" x2="37.3854" y2="35.9319" gradientUnits="userSpaceOnUse">
<stop stop-color="#FFEEA2"/>
<stop offset="0.353928" stop-color="#EFB733"/>
<stop offset="0.730331" stop-color="#FED301"/>
<stop offset="1" stop-color="#93540B"/>
</linearGradient>
<linearGradient id="paint1_linear" x1="8.36804" y1="1.23509" x2="39.8713" y2="48.49" gradientUnits="userSpaceOnUse">
<stop stop-color="#CB962F"/>
<stop offset="0.0955048" stop-color="#F2DF8A"/>
<stop offset="0.466293" stop-color="#EDAD1F"/>
<stop offset="0.741577" stop-color="#F6C76D"/>
<stop offset="1" stop-color="#CE8A2E"/>
</linearGradient>
<radialGradient id="paint2_radial" cx="0" cy="0" r="1" gradientUnits="userSpaceOnUse" gradientTransform="translate(22.3004 35.8234) scale(27.4766 27.679)">
<stop stop-color="#4E4F50"/>
<stop offset="1" stop-color="#D6DAE2"/>
</radialGradient>
<linearGradient id="paint3_linear" x1="9.3517" y1="35.917" x2="34.1191" y2="10.6363" gradientUnits="userSpaceOnUse">
<stop stop-color="#A4A4A4"/>
<stop offset="0.0955048" stop-color="#E9E9E9"/>
<stop offset="0.466293" stop-color="#969696"/>
<stop offset="0.741577" stop-color="#DCDCDC"/>
<stop offset="1" stop-color="#3A3A39"/>
</linearGradient>
<linearGradient id="paint4_linear" x1="19.0311" y1="1.57714" x2="26.6625" y2="46.6018" gradientUnits="userSpaceOnUse">
<stop stop-color="#8B8B8B"/>
<stop offset="0.252808" stop-color="#D8D8D8"/>
<stop offset="0.466293" stop-color="#B8B8B8"/>
<stop offset="0.645972" stop-color="#585858"/>
<stop offset="0.887634" stop-color="#C2C2C2"/>
<stop offset="1" stop-color="#585858"/>
</linearGradient>
<linearGradient id="paint5_linear" x1="1.12408" y1="10.4739" x2="45.9835" y2="35.6101" gradientUnits="userSpaceOnUse">
<stop stop-color="#B1AB9F"/>
<stop offset="0.20787" stop-color="#F1F1F1"/>
<stop offset="0.466293" stop-color="#CFCDC9"/>
<stop offset="0.741577" stop-color="#EBEBEB"/>
<stop offset="1" stop-color="#B1B1B1"/>
</linearGradient>
<linearGradient id="paint6_linear" x1="0.694336" y1="12.585" x2="21.5979" y2="12.585" gradientUnits="userSpaceOnUse">
<stop stop-color="#C7C7C7"/>
<stop offset="0.522476" stop-color="#EFEFEF"/>
<stop offset="1" stop-color="#DCDCDB"/>
</linearGradient>
<linearGradient id="paint7_linear" x1="42.5563" y1="32.0065" x2="23.6569" y2="32.0065" gradientUnits="userSpaceOnUse">
<stop stop-color="#ABABAB"/>
<stop offset="0.522476" stop-color="#FFFDED"/>
<stop offset="1" stop-color="#C9C9C9"/>
</linearGradient>
<linearGradient id="paint8_linear" x1="23.583" y1="32.8282" x2="43.8604" y2="32.8282" gradientUnits="userSpaceOnUse">
<stop stop-color="#D0D0D0"/>
<stop offset="0.466293" stop-color="#5A5A5A"/>
<stop offset="1" stop-color="#D2D2D2"/>
</linearGradient>
<linearGradient id="paint9_linear" x1="11.5746" y1="43.9359" x2="12.682" y2="22.9056" gradientUnits="userSpaceOnUse">
<stop stop-color="#CFCECB"/>
<stop offset="0.522476" stop-color="#FFFDED"/>
<stop offset="1" stop-color="#D6D3CE"/>
</linearGradient>
<linearGradient id="paint10_linear" x1="11.1261" y1="42.0444" x2="13.0919" y2="23.6513" gradientUnits="userSpaceOnUse">
<stop stop-color="#F2DF8A"/>
<stop offset="0.0001" stop-color="#D0D0D0"/>
<stop offset="0.466293" stop-color="#606060"/>
<stop offset="1" stop-color="#CECECE"/>
</linearGradient>
<linearGradient id="paint11_linear" x1="32.3767" y1="21.1806" x2="32.8458" y2="0.762263" gradientUnits="userSpaceOnUse">
<stop stop-color="#EDEDED"/>
<stop offset="0.466293" stop-color="#6B6B6B"/>
<stop offset="1" stop-color="#D8D8D8"/>
</linearGradient>
<clipPath id="clip0">
<rect width="182" height="45" fill="white"/>
</clipPath>
</defs>
</svg>
