<svg width="182" height="45" viewBox="0 0 182 45" fill="none" xmlns="http://www.w3.org/2000/svg">
<path d="M65.5622 34.5134L55.8449 14.053H55.7679L54.7398 31.3288C54.6253 33.2848 56.0739 33.7084 57.7888 33.7838V34.5134H49.8613V33.7838C52.644 33.7838 52.9852 33.1695 53.1767 29.6767L54.0904 14.7427C54.2445 12.2101 54.1674 11.5182 51.8052 11.3652V10.6733H57.5599L66.7444 30.0226L75.8893 10.6733H81.4921V11.3652C79.6252 11.5182 78.9009 11.5559 78.9758 12.8621L80.1954 30.251C80.4243 33.7838 80.7304 33.7838 83.5108 33.7838V34.5134H73.7165V33.7838C75.5085 33.7838 77.2608 33.2848 77.1089 31.2512L76.0038 14.053H75.9267L66.4384 34.5134H65.5622Z" fill="black"/>
<path d="M91.5178 27.373C90.7935 27.7966 90.1837 28.0649 89.2701 28.4486C86.9453 29.4088 86.0691 29.7925 86.0691 31.3648C86.0691 32.7487 87.1743 33.6313 88.3168 33.6313C88.9266 33.6313 89.3845 33.4384 91.5178 31.9414V27.373ZM83.9733 23.8801C83.8963 23.6495 83.8588 23.5342 83.8588 23.3412C83.8588 21.9995 87.0201 18.8881 89.499 18.8881C90.6416 18.8881 92.4336 19.427 93.4991 20.9239C94.0715 21.729 94.0715 22.2302 94.0715 24.2261V29.3689C94.0715 32.4404 94.0715 33.1323 95.0621 33.1323C95.4826 33.1323 95.9757 33.0924 96.929 32.2874L97.1205 32.8618C95.0621 34.5516 93.9944 34.9752 93.3472 34.9752C91.7841 34.9752 91.6322 33.2476 91.5948 32.6333C88.964 34.82 88.2023 34.9752 87.1743 34.9752C84.964 34.9752 83.6299 33.7089 83.6299 31.8261C83.6299 29.4842 85.6883 28.6792 88.1253 28.0649C88.9266 27.872 90.1837 27.4107 91.5178 26.6057V23.5719C91.5178 22.4985 91.5178 21.8842 90.8705 21.1169C90.3752 20.5004 89.5739 20.0036 88.7351 20.0036C87.4781 20.0036 86.3729 21.077 86.3729 21.8842C86.3729 22.1148 86.4103 22.2679 86.5644 22.6138L83.9733 23.8801Z" fill="black"/>
<path d="M101.393 31.1743C101.393 33.2856 101.888 33.7845 103.946 33.7845V34.5142H96.2852V33.7845C97.9627 33.7845 98.8389 32.862 98.8389 31.365V23.3037C98.8389 21.8844 98.687 21.6161 97.6963 21.4231L96.3996 21.1548V20.5405L100.783 18.9282H101.393V21.9221C103.946 20.3099 106.079 18.8883 107.946 18.8883C110.537 18.8883 112.026 20.8088 112.026 24.6477C112.026 29.755 111.757 30.7507 111.72 32.2499C111.682 33.2856 112.292 33.7845 113.855 33.7845H114.692V34.5142H106.498V33.7845C107.603 33.7468 108.252 33.4785 108.671 33.0549C109.395 32.3253 109.472 29.5244 109.472 24.417C109.472 21.3455 107.986 20.3853 106.46 20.3853C105.241 20.3853 103.374 21.4608 101.393 22.8425V31.1743Z" fill="black"/>
<path d="M118.43 31.4806C118.43 33.2858 118.925 33.7848 120.907 33.7848V34.5144H113.285V33.7848C115.381 33.6695 115.876 32.9398 115.876 30.8286V12.4395C115.876 11.5946 115.724 11.2886 114.923 11.1732L113.285 10.9426V10.2906L117.82 8.71603H118.43V21.3081C120.946 19.8111 122.776 18.8886 124.717 18.8886C127.652 18.8886 128.949 20.7315 128.949 24.608C128.949 28.1031 128.872 30.252 128.757 32.3255C128.834 33.3612 129.407 33.7848 131.654 33.7848V34.5144H123.423V33.7848C124.414 33.7848 125.138 33.5918 125.556 33.1705C126.243 32.4786 126.395 30.8286 126.395 25.1092C126.395 20.9998 124.185 20.4631 122.928 20.4631C121.671 20.4631 120.297 21.0774 118.43 22.2683V31.4806Z" fill="black"/>
<path d="M141.643 23.7647C141.222 21.2698 139.699 19.6176 137.869 19.6176C136.612 19.6176 134.708 20.1942 133.83 23.7647H141.643ZM133.715 24.7626C133.64 25.3392 133.563 25.8759 133.563 26.3749C133.563 30.3667 136.346 33.0546 139.355 33.0546C141.262 33.0546 142.748 32.2873 144.196 30.5597L144.615 31.021C143.014 33.0546 140.615 34.9751 137.832 34.9751C134.096 34.9751 131.201 31.5576 131.201 27.1045C131.201 23.0351 133.907 18.888 138.556 18.888C143.701 18.888 143.587 22.6137 144.844 23.88V24.7626H133.715Z" fill="black"/>
<path d="M148.849 10.0597C149.764 10.0597 150.526 10.7117 150.526 11.5189C150.526 12.324 149.764 12.9782 148.849 12.9782C147.935 12.9782 147.211 12.324 147.211 11.5189C147.211 10.7117 147.935 10.0597 148.849 10.0597ZM150.412 31.5957C150.412 32.9396 151.136 33.7845 153.155 33.7845V34.5142H144.694V33.7845C147.019 33.7845 147.858 33.0172 147.858 30.9814V23.266C147.858 21.7691 147.666 21.5762 146.676 21.3854L144.886 21.0395V20.4252L149.839 18.6976H150.412V31.5957Z" fill="black"/>
<path d="M157.922 31.4036C157.922 33.3995 158.455 33.7854 160.591 33.7854V34.5128H152.663V33.7854C154.873 33.7854 155.369 32.7852 155.369 30.8292V23.3046C155.369 21.8055 155.14 21.4617 154.264 21.3464L152.778 21.1535V20.5015L157.35 18.8892H157.922V21.9607C160.665 20.0025 163.182 18.8892 164.705 18.8892C166.572 18.8892 167.946 20.0801 168.327 21.9607C170.88 20.3484 173.203 18.8892 175.072 18.8892C177.815 18.8892 178.883 21.0004 178.883 24.6862C178.883 27.1412 178.883 29.716 178.768 32.0556C178.768 32.8629 179.226 33.7854 180.787 33.7854H182.006V34.5128H173.432V33.7854H173.775C174.88 33.7854 175.376 33.5925 175.719 33.2465C176.291 32.6721 176.329 30.4434 176.329 27.7954V24.8016C176.329 21.8454 175.338 20.4238 173.471 20.4238C172.289 20.4238 170.764 21.0004 168.401 22.575V31.4036C168.401 33.3241 168.859 33.7854 170.764 33.7854V34.5128H162.953V33.7854C165.086 33.7854 165.848 33.0159 165.848 30.8292V23.726C165.848 21.3087 164.362 20.4238 163.028 20.4238C161.962 20.4238 160.514 20.9228 157.922 22.6526V31.4036Z" fill="black"/>
<path d="M1.52148 22.7327C1.52148 34.4 10.9108 43.8562 22.4927 43.8562C34.0746 43.8562 43.4639 34.4 43.4639 22.7327C43.4639 11.0655 34.0746 1.60703 22.4927 1.60703C10.9108 1.60703 1.52148 11.0655 1.52148 22.7327Z" fill="#6E420B"/>
<path d="M1.05566 22.2646C1.05566 33.9296 10.4449 43.3881 22.0269 43.3881C33.6088 43.3881 43.0003 33.9296 43.0003 22.2646C43.0003 10.5973 33.6088 1.13889 22.0269 1.13889C10.4449 1.13889 1.05566 10.5973 1.05566 22.2646Z" fill="#FFFDE9"/>
<path d="M1.36523 22.4984C1.36523 34.1701 10.7545 43.6241 22.3386 43.6241C33.9206 43.6241 43.3077 34.1701 43.3077 22.4984C43.3077 10.8334 33.9206 1.37491 22.3386 1.37491C10.7545 1.37491 1.36523 10.8334 1.36523 22.4984Z" fill="url(#paint0_linear)"/>
<path d="M2.3125 22.4985C2.3125 33.6423 11.2769 42.6727 22.3393 42.6727C33.3995 42.6727 42.3661 33.6423 42.3661 22.4985C42.3661 11.3568 33.3995 2.32411 22.3393 2.32411C11.2769 2.32411 2.3125 11.3568 2.3125 22.4985Z" fill="url(#paint1_linear)"/>
<path d="M2.31055 22.4987C2.31055 33.6425 11.2771 42.673 22.3395 42.673C33.3997 42.673 42.3663 33.6425 42.3663 22.4987C42.3663 11.357 33.3997 2.32435 22.3395 2.32435C11.2771 2.32435 2.31055 11.357 2.31055 22.4987Z" stroke="#FED301" stroke-width="0.068"/>
<path d="M22.3142 38.7316C13.4159 38.7316 6.19945 31.4642 6.19945 22.4981C6.19945 13.5386 13.4159 6.27128 22.3142 6.27128C30.5653 6.27128 38.4268 13.8669 38.4268 22.4981C38.4268 31.4642 31.2104 38.7316 22.3142 38.7316ZM22.3142 4.2177C12.2909 4.2177 4.16309 12.4032 4.16309 22.4981C4.16309 32.5975 12.2909 40.7852 22.3142 40.7852C32.3353 40.7852 40.4609 32.5975 40.4609 22.4981C40.4609 12.4032 32.3353 4.2177 22.3142 4.2177Z" fill="black"/>
<path d="M22.3142 38.7316C13.4159 38.7316 6.19945 31.4642 6.19945 22.4981C6.19945 13.5386 13.4159 6.27128 22.3142 6.27128C30.5653 6.27128 38.4268 13.8669 38.4268 22.4981C38.4268 31.4642 31.2104 38.7316 22.3142 38.7316ZM22.3142 4.2177C12.2909 4.2177 4.16309 12.4032 4.16309 22.4981C4.16309 32.5975 12.2909 40.7852 22.3142 40.7852C32.3353 40.7852 40.4609 32.5975 40.4609 22.4981C40.4609 12.4032 32.3353 4.2177 22.3142 4.2177Z" stroke="#F0E9B6" stroke-width="0.11"/>
<path d="M0.0810547 22.4986C0.0810547 34.8844 10.0449 44.9238 22.3401 44.9238C34.6309 44.9238 44.597 34.8844 44.597 22.4986C44.597 10.1172 34.6309 0.0777065 22.3401 0.0777065C10.0449 0.0777065 0.0810547 10.1172 0.0810547 22.4986ZM2.75363 22.4986C2.75363 11.6031 11.5243 2.77003 22.3401 2.77003C33.156 2.77003 41.9244 11.6031 41.9244 22.4986C41.9244 33.3941 33.156 42.2293 22.3401 42.2293C11.5243 42.2293 2.75363 33.3941 2.75363 22.4986Z" fill="url(#paint2_linear)"/>
<path d="M22.3392 42.2279C11.5211 42.2279 2.75266 33.3948 2.75266 22.4993C2.75266 11.6038 11.5211 2.76854 22.3392 2.76854C33.155 2.76854 41.9234 11.6038 41.9234 22.4993C41.9234 33.3948 33.155 42.2279 22.3392 42.2279ZM22.3392 0.0762696C10.0439 0.0762696 0.0800781 10.1157 0.0800781 22.4993C0.0800781 34.8829 10.0439 44.9224 22.3392 44.9224C34.6322 44.9224 44.5982 34.8829 44.5982 22.4993C44.5982 10.1157 34.6322 0.0762696 22.3392 0.0762696Z" stroke="#9E6606" stroke-width="0.071"/>
<path d="M33.9053 11.221C36.7804 14.1261 38.9951 17.9938 38.9951 22.4247C38.9951 25.2966 37.2427 28.3703 35.9328 30.7056C37.2427 28.3703 38.6186 25.1968 38.6186 22.3249C38.6186 17.8962 36.3995 14.033 33.5244 11.1234L33.9053 11.221Z" fill="#FFFCDB"/>
<path d="M31.5324 35.6383C31.5324 35.6383 31.0436 35.9288 31.0525 36.0241C28.512 37.7384 25.7975 38.4015 22.5107 38.4015C26.8873 38.8029 29.8615 37.235 30.621 36.6606C31.3805 36.0885 31.5324 35.6383 31.5324 35.6383Z" fill="#FFFCDB"/>
<path d="M7.3623 22.3255C7.3623 30.6374 14.0526 37.377 22.3059 37.377C28.8773 37.377 37.3882 31.9303 37.3882 22.3255C37.3882 14.404 29.7799 7.27628 22.3059 7.27628C14.0526 7.27628 7.3623 14.0136 7.3623 22.3255Z" fill="url(#paint3_radial)"/>
<path d="M23.4453 22.7832C23.4453 22.7832 21.6995 17.2678 19.7534 9.35948C20.8013 9.12663 21.7435 9.00244 22.8641 9.00244C24.2752 9.00244 25.6467 9.19981 26.9434 9.57238C25.0171 17.3631 23.4453 22.7832 23.4453 22.7832ZM36.7642 18.5185C36.2534 16.5625 35.3684 14.764 34.1819 13.2027C32.4383 10.9008 30.0541 9.12441 27.2934 8.13532C25.7348 7.57868 24.0529 7.27486 22.3049 7.27486C21.235 7.27486 20.1915 7.38796 19.1898 7.60307C16.8166 8.10871 14.6592 9.18207 12.8452 10.6724C9.49896 13.4312 7.36133 17.6248 7.36133 22.3241C7.36133 24.2801 7.73118 26.1474 8.40483 27.8594C8.09222 26.6441 7.9227 25.3668 7.9227 24.0539C7.9227 19.8381 9.64205 16.0303 12.4115 13.2981C11.7533 17.4097 10.7692 24.3023 10.2497 31.2215C11.6014 33.0821 13.3757 34.6145 15.4165 35.6879V35.7455C15.6036 32.6474 16.0417 26.1296 16.8783 17.8488C16.8783 17.8488 19.2118 29.4096 21.6269 36.9852H24.9379C28.0243 27.8373 30.0673 18.0439 30.0673 18.0439C30.785 25.1428 30.9325 31.064 31.1548 34.5302C33.1802 32.9357 35.6414 29.6447 36.6365 27.2207C36.1544 22.1201 35.7471 19.1351 35.2187 15.7087C35.9298 16.7821 36.2138 17.2811 36.7642 18.5185Z" fill="#003265"/>
<path d="M2.44922 22.4986C2.44922 33.5493 11.3388 42.5021 22.3065 42.5021C33.2676 42.5021 42.1594 33.5493 42.1594 22.4986C42.1594 11.8492 32.4927 2.49942 22.3065 2.49942C11.3388 2.49942 2.44922 11.4567 2.44922 22.4986ZM7.36291 22.3256C7.36291 13.9871 14.0246 7.27631 22.3065 7.27631C29.8069 7.27631 37.3315 13.8961 37.3888 22.3256C37.4592 31.9526 28.9021 37.377 22.3065 37.377C14.0246 37.377 7.36291 30.6663 7.36291 22.3256Z" fill="url(#paint4_linear)"/>
<path d="M22.3058 37.3765C14.026 37.3765 7.36217 30.6658 7.36217 22.325C7.36217 13.9865 14.026 7.2758 22.3058 7.2758C29.8062 7.2758 37.3308 13.8978 37.388 22.325C37.4585 31.9542 28.9014 37.3765 22.3058 37.3765ZM22.3058 2.50112C11.338 2.50112 2.44629 11.4561 2.44629 22.498C2.44629 33.5488 11.338 42.5038 22.3058 42.5038C33.2669 42.5038 42.1608 33.5488 42.1608 22.498C42.1608 11.8487 32.492 2.50112 22.3058 2.50112Z" stroke="#65501B" stroke-width="0.129"/>
<path d="M23.1381 22.3278C23.1381 22.3278 21.0951 16.2779 18.9024 7.7642L18.0549 6.886L12.0845 9.07039C12.0845 9.07039 9.84119 20.3518 9.00684 31.6309L13.6409 35.6871L14.592 35.2724C14.7945 32.1077 15.2678 25.672 16.144 17.5331C16.144 17.5331 18.6383 29.2802 21.0159 36.3303L24.4523 36.3857C26.8277 29.3401 29.9428 17.7305 29.9428 17.7305C31.2043 29.431 31.6247 37.6099 31.6247 37.6099L35.9352 30.704C35.9837 29.6993 36.1047 28.8278 36.1047 28.8278C35.5918 23.9977 34.9027 17.0563 34.359 13.783C34.359 13.783 33.5775 11.7095 33.3661 11.0752C32.9721 9.86216 33.6303 9.22125 33.6303 9.22125L27.7634 5.82819C25.3858 15.4175 23.1381 22.3278 23.1381 22.3278Z" fill="url(#paint5_linear)"/>
<path d="M3.38867 22.3255C3.38867 32.9682 11.948 41.5928 22.5106 41.5928C33.0799 41.5928 41.6414 32.9682 41.6414 22.3255C41.6414 12.0776 32.3028 3.05821 22.5106 3.05821C11.948 3.05821 3.38867 11.6828 3.38867 22.3255ZM18.0549 6.88597C19.4682 6.47347 20.963 6.24952 22.5106 6.24952C24.0649 6.24952 25.5553 6.47347 26.9708 6.88597L27.3869 7.03452C24.7826 15.5926 22.6207 23.2192 22.6207 23.2192C22.6207 23.2192 20.3312 15.8565 18.0549 6.88597ZM6.55439 22.3255C6.55439 17.8968 8.33538 13.885 11.2083 10.9798L11.6552 10.6627C11.0124 14.4882 9.57041 23.3944 8.93639 30.9745C7.63092 28.6415 6.55439 25.1952 6.55439 22.3255ZM35.7767 31.0144C35.1493 23.5785 33.868 14.6013 33.2208 10.8512C33.2054 10.7492 33.2913 10.8667 33.3771 10.9842C33.4586 11.0973 33.5378 11.2149 33.5246 11.124C36.3997 14.0314 38.6188 17.8968 38.6188 22.3255C38.6188 25.1952 37.2429 28.3687 35.9352 30.7039C35.9286 30.6507 35.8912 30.7549 35.856 30.8592C35.8273 30.9457 35.7965 31.0299 35.7833 31.0299C35.7811 31.0299 35.7789 31.0255 35.7767 31.0144ZM13.6409 35.6871C13.8126 32.8484 14.363 25.2063 15.3074 16.4109C15.3074 16.4109 18.9134 28.7457 21.2954 35.7958H24.0561C27.0963 26.2065 29.8151 16.5817 29.8151 16.5817C30.6913 24.6763 30.7574 31.4757 30.9599 34.6559C30.9709 34.8178 31.5323 35.6383 31.5323 35.6383C31.5323 35.6383 31.0436 35.9288 31.0524 36.0242C28.5097 37.7385 25.7974 38.4015 22.5106 38.4015C19.2304 38.4015 16.1792 37.4014 13.6409 35.6871Z" fill="url(#paint6_linear)"/>
<path d="M8.93592 30.9728C9.73725 22.7474 11.2056 13.7591 11.6547 10.6632L10.9216 12.6303C10.2832 16.3383 9.33658 22.3925 8.74219 28.7418L8.93592 30.9728Z" fill="#FFE694"/>
<path d="M15.3086 16.4123C15.3086 16.4123 18.9146 28.747 21.2944 35.7949L21.0148 36.3315C19.2977 31.2419 17.0478 23.5554 15.9272 19.6745C15.6872 18.6965 15.5111 17.7784 15.5111 17.7784L15.3086 16.4123Z" fill="#F7EAB1"/>
<path d="M22.6221 23.2189C22.6221 23.2189 25.0019 15.8517 27.3861 7.03418L26.7036 7.94565C25.0503 14.3503 23.4872 19.3357 22.8334 21.3538L22.6221 23.2189Z" fill="#FFE694"/>
<path d="M29.8168 16.5812C30.7656 25.3744 31.3578 32.8014 31.5317 35.6378L30.9616 34.6576C30.7524 31.524 30.3341 25.9842 29.6143 19.0672L29.8168 16.5812Z" fill="#FFE694"/>
<path d="M27.3867 7.03455C26.3476 6.54 24.6393 5.97449 22.3057 6.05211C20.7559 6.10312 19.6926 6.22731 18.0547 6.88818C19.468 6.47347 20.965 6.2517 22.5105 6.2517C24.0647 6.2517 25.9712 6.61984 27.3867 7.03455Z" fill="#FFFCD7"/>
<path d="M9.29096 30.1253L8.93652 30.9724C9.74006 22.747 11.2062 13.7609 11.6553 10.6628C11.6553 10.6628 10.9883 17.3558 9.29096 30.1253Z" fill="#FFFCDB"/>
<path d="M16.0078 18.989L21.1196 35.2913C19.9859 29.0973 16.0078 18.989 16.0078 18.989Z" fill="#FFFCDB"/>
<path d="M30.1484 19.0274C30.7737 25.594 31.4715 34.7552 31.4715 34.7552C31.8524 26.8425 30.1484 19.0274 30.1484 19.0274Z" fill="#FFFCDB"/>
<path d="M3.96793 17.2163C3.96793 17.2163 4.05158 17.2917 3.96793 17.2163C5.98227 12.3152 7.48808 10.4124 10.3302 7.62923L9.54205 8.26571C5.41649 11.6255 4.14625 16.0808 3.96793 17.2163C3.78741 18.3518 3.96793 17.2163 3.96793 17.2163Z" fill="#FFFCDB"/>
<path d="M27.3552 7.63654C26.7873 12.4024 22.6221 23.218 22.6221 23.218L27.3552 7.63654Z" fill="#FFFCDB"/>
<path d="M13.7372 34.7987C14.1158 28.8886 15.1571 18.115 15.1571 18.115C13.4554 28.6978 13.7372 34.7987 13.7372 34.7987Z" fill="#B38F18"/>
<path d="M35.644 30.7051C34.7326 19.2175 33.8828 15.1192 33.8828 15.1192C33.8828 15.1192 34.8272 26.4626 35.0188 27.6979C35.2059 28.942 35.644 30.7051 35.644 30.7051Z" fill="#B38F18"/>
<path d="M24.0576 35.7953C25.2816 32.1317 29.2531 19.0695 29.2531 19.0695C25.7572 28.8894 24.0576 35.7953 24.0576 35.7953Z" fill="#B38F18"/>
<path d="M0.749023 22.5362C0.749023 34.6293 10.4157 44.4292 22.341 44.4292C34.2664 44.4292 43.9309 34.6293 43.9309 22.5362C43.9309 10.4476 34.2664 0.64319 22.341 0.64319C10.4157 0.64319 0.749023 10.4476 0.749023 22.5362ZM2.14254 22.5362C2.14254 11.2282 11.1862 2.05807 22.341 2.05807C33.4959 2.05807 42.5351 11.2282 42.5351 22.5362C42.5351 33.8509 33.4959 43.0143 22.341 43.0143C11.1862 43.0143 2.14254 33.8509 2.14254 22.5362Z" fill="url(#paint7_linear)"/>
<path d="M22.3398 43.0153C11.185 43.0153 2.14133 33.8496 2.14133 22.5372C2.14133 11.2269 11.185 2.05902 22.3398 2.05902C33.4947 2.05902 42.5361 11.2269 42.5361 22.5372C42.5361 33.8496 33.4947 43.0153 22.3398 43.0153ZM22.3398 0.644134C10.4145 0.644134 0.75 10.4485 0.75 22.5372C0.75 34.628 10.4145 44.4302 22.3398 44.4302C34.2652 44.4302 43.9297 34.628 43.9297 22.5372C43.9297 10.4485 34.2652 0.644134 22.3398 0.644134Z" stroke="#FED301" stroke-width="0.068"/>
<path d="M21.2315 0.487932C15.3668 0.860503 9.99519 3.53281 6.1074 8.01033C2.2174 12.4923 0.328537 18.0498 0.693981 24.0132C0.698384 24.0819 0.790838 24.694 0.861285 24.6896C0.927329 24.6873 0.89871 24.2594 0.892106 24.1906C0.533266 18.2938 2.45075 12.6076 6.29452 8.18108C10.1383 3.75236 15.4328 0.960308 21.2337 0.59439C21.3019 0.589954 21.6014 0.598812 21.5969 0.525629C21.5947 0.490146 21.5111 0.479066 21.4252 0.479066C21.346 0.479066 21.2623 0.487932 21.2315 0.487932Z" fill="url(#paint8_linear)"/>
<path d="M42.3764 21.5138C42.7045 26.8451 40.9697 31.9879 37.4936 35.9886C34.0175 39.9937 29.2293 42.5153 23.9876 42.8502C23.9259 42.8524 23.6507 42.8435 23.6573 42.9078C23.6595 42.9744 23.9259 42.9477 23.9898 42.9433C29.2931 42.6062 34.1496 40.1911 37.6631 36.1438C41.1788 32.0921 42.8872 27.0669 42.5548 21.6757C42.5526 21.6091 42.4667 21.0613 42.4051 21.0613C42.3434 21.0636 42.372 21.4517 42.3764 21.5138Z" fill="url(#paint9_linear)"/>
<path d="M43.7814 21.1856C43.7109 21.1901 43.6999 21.3653 43.7065 21.434C44.061 27.1734 42.1765 32.7132 38.3966 37.0243C34.6189 41.3378 29.4542 43.9347 23.7524 44.2917C23.6864 44.2962 23.5807 44.3294 23.5851 44.4004C23.5873 44.4691 23.671 44.4736 23.737 44.4691C29.5026 44.1076 34.762 41.5529 38.5837 37.1885C42.4055 32.8263 44.2195 27.1689 43.8606 21.3652C43.8562 21.2943 43.8496 21.1856 43.788 21.1856C43.7858 21.1856 43.7836 21.1856 43.7814 21.1856Z" fill="url(#paint10_linear)"/>
<path d="M0.656286 22.6425C0.717927 28.5616 3.08671 34.1058 7.32234 38.2506C11.5624 42.3955 16.9736 44.5888 22.9043 44.5311C22.9748 44.5311 23.5868 44.469 23.5846 44.4002C23.5846 44.3293 23.1553 44.3404 23.0893 44.3404C17.2267 44.3936 11.6879 42.1693 7.50066 38.071C3.31126 33.9705 0.82359 28.4994 0.761949 22.6492C0.759747 22.576 0.781773 22.2744 0.711326 22.2744C0.64308 22.2766 0.654084 22.5738 0.656286 22.6425Z" fill="url(#paint11_linear)"/>
<path d="M23.9873 2.06917C23.9829 2.13126 24.3704 2.17562 24.4342 2.18449C29.7948 2.85423 34.594 5.54429 37.9513 9.75568C40.9298 13.4925 42.5589 18.0432 42.4555 22.7181C42.4445 23.3102 42.5501 23.1927 42.5611 22.5362C42.647 17.8746 41.106 13.3483 38.134 9.61593C34.7371 5.35353 30.0458 2.71226 24.6214 2.03587C24.595 2.03143 24.4651 2.02477 24.333 2.02477C24.1657 2.02477 23.9917 2.0359 23.9873 2.06917Z" fill="url(#paint12_linear)"/>
<path d="M2.312 22.4985C2.312 22.4675 2.312 22.452 2.312 22.452C2.312 22.452 2.312 22.4675 2.312 22.4985ZM7.51628 36.7028C11.1443 40.6503 15.9237 42.8923 21.2799 43.1296C21.3437 43.1319 21.8985 43.1052 21.9007 43.0431C21.9051 42.9788 21.5198 42.9677 21.4538 42.9677C16.1615 42.7305 11.2676 40.4507 7.6836 36.5476C4.0974 32.6444 2.08745 27.7855 2.312 22.4985C2.08525 27.8454 3.88825 32.7531 7.51628 36.7028Z" fill="url(#paint13_linear)"/>
<path d="M21.4607 0.499073C21.3902 0.503508 21.2779 0.507968 21.2824 0.578934C21.2846 0.645464 21.4585 0.658778 21.5267 0.656561C27.2329 0.430356 32.686 2.45285 36.8798 6.3582C41.0714 10.2636 43.5326 15.5239 43.7594 21.2722C43.7616 21.3409 43.7924 21.4474 43.8606 21.4452C43.9289 21.4407 43.9399 21.3609 43.9355 21.2921C43.7065 15.4774 41.2893 10.1238 37.0471 6.17635C33.0272 2.43511 27.8141 0.481342 22.3699 0.481342C22.0661 0.481342 21.7645 0.487983 21.4607 0.499073Z" fill="url(#paint14_linear)"/>
<path d="M19.2613 42.7405C8.571 41.0839 1.20048 30.2083 2.84498 19.4392C4.48948 8.66791 14.7527 0.602182 25.4453 2.25658C14.4203 0.548957 4.09761 8.22881 2.39147 19.406C0.683133 30.5831 8.23638 41.0306 19.2613 42.7405Z" fill="#9E6606"/>
<path d="M42.3243 25.6318C44.0304 14.4547 36.4794 4.00715 25.4522 2.29732C36.1448 3.95615 43.5263 14.7563 41.8818 25.5254C40.2395 36.2945 29.9631 44.44 19.2705 42.7812C30.2955 44.4888 40.6182 36.8134 42.3243 25.6318Z" fill="#FFFBCA"/>
<path d="M10.7519 5.46882C6.35335 8.51814 3.46502 12.9668 2.46335 18.2716C2.45014 18.3314 2.39731 18.8903 2.45895 18.9014C2.52059 18.9125 2.58883 18.531 2.59983 18.4689C3.58829 13.2241 6.52946 8.6756 10.8796 5.65954C15.2297 2.64348 20.4868 1.3905 25.6492 2.37294C25.7109 2.38403 25.9729 2.45723 25.9861 2.39514C25.9949 2.33304 25.7307 2.29089 25.6691 2.27758C24.4384 2.0425 23.199 1.92721 21.9706 1.92721C17.9969 1.92721 14.1135 3.14025 10.7519 5.46882Z" fill="url(#paint15_linear)"/>
<defs>
<linearGradient id="paint0_linear" x1="6.92599" y1="8.32456" x2="37.3854" y2="35.9319" gradientUnits="userSpaceOnUse">
<stop stop-color="#FFEEA2"/>
<stop offset="0.353928" stop-color="#EFB733"/>
<stop offset="0.730331" stop-color="#FED301"/>
<stop offset="1" stop-color="#93540B"/>
</linearGradient>
<linearGradient id="paint1_linear" x1="8.36901" y1="1.23509" x2="39.8723" y2="48.49" gradientUnits="userSpaceOnUse">
<stop stop-color="#CB962F"/>
<stop offset="0.0955048" stop-color="#F2DF8A"/>
<stop offset="0.466293" stop-color="#EDAD1F"/>
<stop offset="0.741577" stop-color="#F6C76D"/>
<stop offset="1" stop-color="#CE8A2E"/>
</linearGradient>
<linearGradient id="paint2_linear" x1="28.2395" y1="1.75561" x2="16.3173" y2="43.0606" gradientUnits="userSpaceOnUse">
<stop stop-color="#916E18"/>
<stop offset="0.342697" stop-color="#FFF682"/>
<stop offset="0.634827" stop-color="#7A460B"/>
<stop offset="0.831467" stop-color="#EAC35C"/>
<stop offset="1" stop-color="#A2761D"/>
</linearGradient>
<radialGradient id="paint3_radial" cx="0" cy="0" r="1" gradientUnits="userSpaceOnUse" gradientTransform="translate(22.3004 35.8234) scale(27.4766 27.679)">
<stop stop-color="#003366"/>
<stop offset="1" stop-color="#C4CCDF"/>
</radialGradient>
<linearGradient id="paint4_linear" x1="9.35268" y1="35.917" x2="34.12" y2="10.6363" gradientUnits="userSpaceOnUse">
<stop stop-color="#EBD47A"/>
<stop offset="0.0955048" stop-color="#FFFDE7"/>
<stop offset="0.466293" stop-color="#E6903B"/>
<stop offset="0.741577" stop-color="#FFF4C1"/>
<stop offset="1" stop-color="#B56324"/>
</linearGradient>
<linearGradient id="paint5_linear" x1="22.5555" y1="34.9239" x2="22.5555" y2="20.2322" gradientUnits="userSpaceOnUse">
<stop stop-color="#AF8718"/>
<stop offset="0.241577" stop-color="#DBC142"/>
<stop offset="0.578659" stop-color="#F4D793"/>
<stop offset="1" stop-color="#9A8016"/>
</linearGradient>
<linearGradient id="paint6_linear" x1="19.0321" y1="1.57714" x2="26.6635" y2="46.6018" gradientUnits="userSpaceOnUse">
<stop stop-color="#EFBF5F"/>
<stop offset="0.252808" stop-color="#F4D767"/>
<stop offset="0.466293" stop-color="#DFAD3F"/>
<stop offset="0.646072" stop-color="#BF851A"/>
<stop offset="0.887634" stop-color="#F6D459"/>
<stop offset="1" stop-color="#C28031"/>
</linearGradient>
<linearGradient id="paint7_linear" x1="1.12408" y1="10.4739" x2="45.9835" y2="35.6102" gradientUnits="userSpaceOnUse">
<stop stop-color="#D09F43"/>
<stop offset="0.20787" stop-color="#FFFABE"/>
<stop offset="0.466293" stop-color="#F0B944"/>
<stop offset="0.741577" stop-color="#FFF9BA"/>
<stop offset="1" stop-color="#D39542"/>
</linearGradient>
<linearGradient id="paint8_linear" x1="0.694336" y1="12.585" x2="21.5979" y2="12.585" gradientUnits="userSpaceOnUse">
<stop stop-color="#F3DF80"/>
<stop offset="0.522476" stop-color="#FFFDED"/>
<stop offset="1" stop-color="#F6C76D"/>
</linearGradient>
<linearGradient id="paint9_linear" x1="42.5563" y1="32.0064" x2="23.6569" y2="32.0064" gradientUnits="userSpaceOnUse">
<stop stop-color="#F3DF80"/>
<stop offset="0.522476" stop-color="#FFFDED"/>
<stop offset="1" stop-color="#F6C76D"/>
</linearGradient>
<linearGradient id="paint10_linear" x1="23.584" y1="32.8282" x2="43.8614" y2="32.8282" gradientUnits="userSpaceOnUse">
<stop stop-color="#F2DF8A"/>
<stop offset="0.466293" stop-color="#A26611"/>
<stop offset="1" stop-color="#F6C76D"/>
</linearGradient>
<linearGradient id="paint11_linear" x1="11.5746" y1="43.9358" x2="12.682" y2="22.9055" gradientUnits="userSpaceOnUse">
<stop stop-color="#F3DF80"/>
<stop offset="0.522476" stop-color="#FFFDED"/>
<stop offset="1" stop-color="#F6C76D"/>
</linearGradient>
<linearGradient id="paint12_linear" x1="34.8334" y1="3.93103" x2="31.647" y2="21.0785" gradientUnits="userSpaceOnUse">
<stop stop-color="#F3DF80"/>
<stop offset="0.522476" stop-color="#FFFDED"/>
<stop offset="1" stop-color="#F6C76D"/>
</linearGradient>
<linearGradient id="paint13_linear" x1="11.1261" y1="42.0444" x2="13.0919" y2="23.6513" gradientUnits="userSpaceOnUse">
<stop stop-color="#F2DF8A"/>
<stop offset="0.466293" stop-color="#A26611"/>
<stop offset="1" stop-color="#F6C76D"/>
</linearGradient>
<linearGradient id="paint14_linear" x1="32.3776" y1="21.1806" x2="32.8468" y2="0.762263" gradientUnits="userSpaceOnUse">
<stop stop-color="#F2DF8A"/>
<stop offset="0.466293" stop-color="#A26611"/>
<stop offset="1" stop-color="#F6C76D"/>
</linearGradient>
<linearGradient id="paint15_linear" x1="4.99666" y1="8.25784" x2="23.3296" y2="12.8949" gradientUnits="userSpaceOnUse">
<stop stop-color="#F2DF8A"/>
<stop offset="0.466293" stop-color="#A26611"/>
<stop offset="1" stop-color="#F6C76D"/>
</linearGradient>
</defs>
</svg>
