<svg width="55" height="55" viewBox="0 0 55 55" fill="none" xmlns="http://www.w3.org/2000/svg">
<path opacity="0.8" fill-rule="evenodd" clip-rule="evenodd" d="M14.5 9.5C18.59 8.9435 20.4977 13.3668 24 15.5C27.7589 17.7896 32.4033 18.7182 33 22.9999C33.6072 27.3574 36.7044 33.9285 35 37.9999C33.4991 41.5852 36.4864 45.4801 34 48.4999C31.1925 51.9098 27.5695 51.5611 23.1216 50.9999C18.682 50.4398 15.9041 46.8343 12.5 43.9999C9.48542 41.4899 6.35654 38.7133 4.35703 35.376C2.06837 31.5561 2.31158 23.0133 4.35708 19.0644C6.42151 15.079 6.57725 15.804 10.5 13.5C13.9046 11.5003 10.5635 10.0356 14.5 9.5Z" fill="#CEE1F9"/>
<path d="M50.4173 25.3916V27.5C50.4145 32.4418 48.8143 37.2503 45.8554 41.2083C42.8965 45.1664 38.7373 48.0619 33.9983 49.4631C29.2593 50.8643 24.1944 50.696 19.5588 48.9834C14.9233 47.2708 10.9655 44.1056 8.27577 39.9599C5.58605 35.8142 4.30851 30.9101 4.63366 25.979C4.95881 21.0479 6.86925 16.3541 10.08 12.5974C13.2908 8.84081 17.63 6.22273 22.4503 5.13364C27.2706 4.04456 32.3138 4.54283 36.8277 6.55414" stroke="#6A95DC" stroke-width="3.5" stroke-linecap="round" stroke-linejoin="round"/>
<path d="M50.4167 9.16663L27.5 32.1062L20.625 25.2312" stroke="#6A95DC" stroke-width="3.5" stroke-linecap="round" stroke-linejoin="round"/>
</svg>
