<svg width="55" height="55" viewBox="0 0 55 55" fill="none" xmlns="http://www.w3.org/2000/svg">
<path opacity="0.6" fill-rule="evenodd" clip-rule="evenodd" d="M30.484 4.3446C33.8278 5.3252 40.2157 8.47406 42.9998 11C45.7982 13.5388 45.5303 15.0314 46.7407 19.0937C47.945 23.1355 44.625 26.9725 43.4629 31.0337C42.3512 34.9185 42.685 39.8206 40.0869 42.3464C37.4763 44.8844 34.2987 48.1277 30.9998 48C27.8154 47.8767 39.3744 45.7271 36.5 44C33.1135 41.9652 31.9522 36.8422 30.4843 32.5C28.9759 28.038 27.7188 20.5732 28.9993 16C30.2536 11.5201 30.3793 10.6784 33.4995 8C36.5666 5.3673 26.8671 3.28392 30.484 4.3446Z" fill="#CEE1F9"/>
<path d="M27.5003 50.4167C27.5003 50.4167 45.8337 41.25 45.8337 27.5V11.4584L27.5003 4.58337L9.16699 11.4584V27.5C9.16699 41.25 27.5003 50.4167 27.5003 50.4167Z" stroke="#6A95DC" stroke-width="3.5" stroke-linecap="round" stroke-linejoin="round"/>
</svg>
