<svg width="55" height="55" viewBox="0 0 55 55" fill="none" xmlns="http://www.w3.org/2000/svg">
<path opacity="0.56" fill-rule="evenodd" clip-rule="evenodd" d="M36.6233 4.05551C37.9639 4.43729 38.6495 7.55259 39.7963 9.07342C41.0776 10.7728 43.0216 10.5969 43.708 13.4515C44.3981 16.3213 43.7303 19.8629 43.0942 22.7883C42.5119 25.4669 41.4252 27.3242 40.309 29.0851C39.1791 30.8674 38.0308 33.1027 36.6233 32.9963C35.2293 32.891 34.3026 30.1219 33.1236 28.5423C31.8317 26.8116 30.0665 26.2194 29.3935 23.3109C28.698 20.3051 29.0135 16.5924 29.6495 13.5279C30.2489 10.6396 31.5105 8.77313 32.7639 7.07073C33.9472 5.46338 35.2303 3.65883 36.6233 4.05551Z" fill="#CEE1F9"/>
<path d="M27.4997 34.375C36.3592 34.375 43.5413 27.1929 43.5413 18.3333C43.5413 9.47372 36.3592 2.29163 27.4997 2.29163C18.6401 2.29163 11.458 9.47372 11.458 18.3333C11.458 27.1929 18.6401 34.375 27.4997 34.375Z" stroke="#6A95DC" stroke-width="3.5" stroke-linecap="round" stroke-linejoin="round"/>
<path d="M18.8149 31.8313L16.042 52.7083L27.5003 45.8333L38.9587 52.7083L36.1857 31.8083" stroke="#6A95DC" stroke-width="3.5" stroke-linecap="round" stroke-linejoin="round"/>
</svg>
