<svg width="237" height="237" viewBox="0 0 237 237" fill="none" xmlns="http://www.w3.org/2000/svg">
<circle cx="2.5" cy="2.5" r="2.5" fill="#CEE1F9"/>
<circle cx="31.5" cy="2.5" r="2.5" fill="#CEE1F9"/>
<circle cx="60.5" cy="2.5" r="2.5" fill="#CEE1F9"/>
<circle cx="89.5" cy="2.5" r="2.5" fill="#CEE1F9"/>
<circle cx="118.5" cy="2.5" r="2.5" fill="#CEE1F9"/>
<circle cx="147.5" cy="2.5" r="2.5" fill="#CEE1F9"/>
<circle cx="176.5" cy="2.5" r="2.5" fill="#CEE1F9"/>
<circle cx="205.5" cy="2.5" r="2.5" fill="#CEE1F9"/>
<circle cx="234.5" cy="2.5" r="2.5" fill="#CEE1F9"/>
<circle cx="2.5" cy="31.5" r="2.5" fill="#CEE1F9"/>
<circle cx="31.5" cy="31.5" r="2.5" fill="#CEE1F9"/>
<circle cx="60.5" cy="31.5" r="2.5" fill="#CEE1F9"/>
<circle cx="89.5" cy="31.5" r="2.5" fill="#CEE1F9"/>
<circle cx="118.5" cy="31.5" r="2.5" fill="#CEE1F9"/>
<circle cx="147.5" cy="31.5" r="2.5" fill="#CEE1F9"/>
<circle cx="176.5" cy="31.5" r="2.5" fill="#CEE1F9"/>
<circle cx="205.5" cy="31.5" r="2.5" fill="#CEE1F9"/>
<circle cx="234.5" cy="31.5" r="2.5" fill="#CEE1F9"/>
<circle cx="2.5" cy="60.5" r="2.5" fill="#CEE1F9"/>
<circle cx="31.5" cy="60.5" r="2.5" fill="#CEE1F9"/>
<circle cx="60.5" cy="60.5" r="2.5" fill="#CEE1F9"/>
<circle cx="89.5" cy="60.5" r="2.5" fill="#CEE1F9"/>
<circle cx="118.5" cy="60.5" r="2.5" fill="#CEE1F9"/>
<circle cx="147.5" cy="60.5" r="2.5" fill="#CEE1F9"/>
<circle cx="176.5" cy="60.5" r="2.5" fill="#CEE1F9"/>
<circle cx="205.5" cy="60.5" r="2.5" fill="#CEE1F9"/>
<circle cx="234.5" cy="60.5" r="2.5" fill="#CEE1F9"/>
<circle cx="2.5" cy="89.5" r="2.5" fill="#CEE1F9"/>
<circle cx="31.5" cy="89.5" r="2.5" fill="#CEE1F9"/>
<circle cx="60.5" cy="89.5" r="2.5" fill="#CEE1F9"/>
<circle cx="89.5" cy="89.5" r="2.5" fill="#CEE1F9"/>
<circle cx="118.5" cy="89.5" r="2.5" fill="#CEE1F9"/>
<circle cx="147.5" cy="89.5" r="2.5" fill="#CEE1F9"/>
<circle cx="176.5" cy="89.5" r="2.5" fill="#CEE1F9"/>
<circle cx="205.5" cy="89.5" r="2.5" fill="#CEE1F9"/>
<circle cx="234.5" cy="89.5" r="2.5" fill="#CEE1F9"/>
<circle cx="2.5" cy="118.5" r="2.5" fill="#CEE1F9"/>
<circle cx="31.5" cy="118.5" r="2.5" fill="#CEE1F9"/>
<circle cx="60.5" cy="118.5" r="2.5" fill="#CEE1F9"/>
<circle cx="89.5" cy="118.5" r="2.5" fill="#CEE1F9"/>
<circle cx="118.5" cy="118.5" r="2.5" fill="#CEE1F9"/>
<circle cx="147.5" cy="118.5" r="2.5" fill="#CEE1F9"/>
<circle cx="176.5" cy="118.5" r="2.5" fill="#CEE1F9"/>
<circle cx="205.5" cy="118.5" r="2.5" fill="#CEE1F9"/>
<circle cx="234.5" cy="118.5" r="2.5" fill="#CEE1F9"/>
<circle cx="2.5" cy="147.5" r="2.5" fill="#CEE1F9"/>
<circle cx="31.5" cy="147.5" r="2.5" fill="#CEE1F9"/>
<circle cx="60.5" cy="147.5" r="2.5" fill="#CEE1F9"/>
<circle cx="89.5" cy="147.5" r="2.5" fill="#CEE1F9"/>
<circle cx="118.5" cy="147.5" r="2.5" fill="#CEE1F9"/>
<circle cx="147.5" cy="147.5" r="2.5" fill="#CEE1F9"/>
<circle cx="176.5" cy="147.5" r="2.5" fill="#CEE1F9"/>
<circle cx="205.5" cy="147.5" r="2.5" fill="#CEE1F9"/>
<circle cx="234.5" cy="147.5" r="2.5" fill="#CEE1F9"/>
<circle cx="2.5" cy="176.5" r="2.5" fill="#CEE1F9"/>
<circle cx="31.5" cy="176.5" r="2.5" fill="#CEE1F9"/>
<circle cx="60.5" cy="176.5" r="2.5" fill="#CEE1F9"/>
<circle cx="89.5" cy="176.5" r="2.5" fill="#CEE1F9"/>
<circle cx="118.5" cy="176.5" r="2.5" fill="#CEE1F9"/>
<circle cx="147.5" cy="176.5" r="2.5" fill="#CEE1F9"/>
<circle cx="176.5" cy="176.5" r="2.5" fill="#CEE1F9"/>
<circle cx="205.5" cy="176.5" r="2.5" fill="#CEE1F9"/>
<circle cx="234.5" cy="176.5" r="2.5" fill="#CEE1F9"/>
<circle cx="2.5" cy="205.5" r="2.5" fill="#CEE1F9"/>
<circle cx="31.5" cy="205.5" r="2.5" fill="#CEE1F9"/>
<circle cx="60.5" cy="205.5" r="2.5" fill="#CEE1F9"/>
<circle cx="89.5" cy="205.5" r="2.5" fill="#CEE1F9"/>
<circle cx="118.5" cy="205.5" r="2.5" fill="#CEE1F9"/>
<circle cx="147.5" cy="205.5" r="2.5" fill="#CEE1F9"/>
<circle cx="176.5" cy="205.5" r="2.5" fill="#CEE1F9"/>
<circle cx="205.5" cy="205.5" r="2.5" fill="#CEE1F9"/>
<circle cx="234.5" cy="205.5" r="2.5" fill="#CEE1F9"/>
<circle cx="2.5" cy="234.5" r="2.5" fill="#CEE1F9"/>
<circle cx="31.5" cy="234.5" r="2.5" fill="#CEE1F9"/>
<circle cx="60.5" cy="234.5" r="2.5" fill="#CEE1F9"/>
<circle cx="89.5" cy="234.5" r="2.5" fill="#CEE1F9"/>
<circle cx="118.5" cy="234.5" r="2.5" fill="#CEE1F9"/>
<circle cx="147.5" cy="234.5" r="2.5" fill="#CEE1F9"/>
<circle cx="176.5" cy="234.5" r="2.5" fill="#CEE1F9"/>
<circle cx="205.5" cy="234.5" r="2.5" fill="#CEE1F9"/>
<circle cx="234.5" cy="234.5" r="2.5" fill="#CEE1F9"/>
</svg>
