<svg width="60" height="45" viewBox="0 0 60 45" fill="none" xmlns="http://www.w3.org/2000/svg">
<path opacity="0.8" fill-rule="evenodd" clip-rule="evenodd" d="M19.6429 2.63277C19.2228 2.84792 18.91 3.24247 18.5343 4.0306C18.4353 4.23852 17.4787 6.18265 16.4087 8.3509C15.3386 10.5192 13.9611 13.3138 13.3475 14.5613C12.734 15.8088 11.6304 18.0446 10.895 19.5297C10.1598 21.0148 9.04336 23.2748 8.41416 24.552C7.78507 25.8292 7.23301 26.9228 7.1874 26.9822C7.14189 27.0416 6.11114 29.1315 4.897 31.6265C2.91349 35.7024 1.74058 38.0823 0.421749 40.7074C-0.0700857 41.6862 -0.11643 42.0301 0.203075 42.3295C0.404735 42.5185 0.635726 42.5376 3.04741 42.5649C6.11344 42.5995 6.16573 42.5863 6.77854 41.6172C6.98511 41.2905 8.19967 38.8846 9.47747 36.2708C10.7553 33.6571 11.8358 31.4699 11.8785 31.4105C11.9213 31.3511 13.003 29.1639 14.2823 26.5502C15.5615 23.9364 17.2767 20.4612 18.0938 18.8276C19.436 16.1439 22.2975 10.3333 24.7425 5.32669C25.7949 3.17183 25.843 2.90959 25.2433 2.59972C24.9274 2.4363 24.5539 2.41081 22.4773 2.41071C20.2645 2.41071 20.0426 2.42809 19.6429 2.63277ZM33.959 2.51256C33.8442 2.56127 33.6563 2.70902 33.5415 2.84112C33.3346 3.07906 33.3325 3.25349 33.3052 22.3762C33.2849 36.7611 33.3085 41.7481 33.3983 41.9733C33.6255 42.5434 33.8653 42.5893 36.6206 42.5893C39.3537 42.5893 39.5953 42.5449 39.836 41.9983C39.9237 41.7991 39.9608 40.7695 39.9608 38.5305C39.9608 35.9788 39.9911 35.2706 40.1136 34.9674C40.3867 34.2908 40.5118 34.2727 44.9134 34.2727C49.2117 34.2727 49.4524 34.304 49.8755 34.9189C49.9882 35.0825 50.767 36.6202 51.6064 38.3358C52.4457 40.0515 53.2605 41.6253 53.4169 41.8332C53.959 42.5533 54.1233 42.5889 56.9032 42.5891C59.7445 42.5893 59.9956 42.5299 60 41.856C60.0016 41.6167 57.378 36.1326 51.7995 24.714C50.3194 21.6844 48.9063 18.7682 48.6594 18.2336C48.4125 17.6989 48.0878 17.0185 47.938 16.7215C47.7881 16.4245 46.281 13.3381 44.5889 9.86301C42.897 6.38787 41.3831 3.37446 41.225 3.16654C40.6619 2.42604 40.5757 2.41006 37.1947 2.41751C35.5299 2.42118 34.0738 2.46395 33.959 2.51256ZM41.0334 16.9631C41.1963 17.2148 42.0842 18.9645 43.0065 20.8514C43.9286 22.7381 45.0533 25.0266 45.5056 25.9368C46.3916 27.7196 46.4916 28.1454 46.1084 28.5046C45.908 28.6924 45.6764 28.7131 43.4477 28.7428C41.4116 28.77 40.9499 28.7476 40.6653 28.6079C39.9923 28.2774 40.0162 28.4868 39.9807 22.6079C39.9453 16.7341 39.9704 16.4128 40.4595 16.4719C40.6507 16.495 40.8294 16.6478 41.0334 16.9631ZM25.9335 18.0986C25.5006 18.5018 21.2769 27.1846 21.2769 27.6712C21.2769 28.0312 21.4876 28.3016 21.8392 28.3929C21.9682 28.4264 22.9738 28.4386 24.074 28.42L26.0741 28.3863L26.3633 28.0868L26.6524 27.7873V23C26.6524 19.1011 26.6258 18.1796 26.5092 18.0341C26.3212 17.7998 26.245 17.8084 25.9335 18.0986ZM18.0896 34.884C17.9728 34.9092 17.7507 35.0371 17.5961 35.1682C17.2164 35.4906 14.2835 41.4763 14.2835 41.9291C14.2835 42.6112 14.1548 42.5979 20.4769 42.565L26.1771 42.5353L26.4148 42.2892C26.6517 42.0441 26.6524 42.0327 26.6524 38.7545V35.4656L26.3631 35.1662L26.0739 34.8667L22.1879 34.8526C20.0508 34.8448 18.2065 34.859 18.0896 34.884Z" fill="#CA0107"/>
</svg>
