<svg width="83" height="48" viewBox="0 0 83 48" fill="none" xmlns="http://www.w3.org/2000/svg">
<path d="M42.5527 0H47.5451C49.4897 0 50.932 0.290149 51.8717 0.870466C52.8179 1.44425 53.2911 2.34079 53.2911 3.56009C53.2911 4.36209 53.0855 5.04673 52.6743 5.61399C52.2633 6.18125 51.7217 6.54639 51.0494 6.7094V6.8072C51.9369 7.04194 52.5797 7.43315 52.9778 7.98085C53.376 8.52856 53.575 9.23927 53.575 10.113C53.575 11.4105 53.0855 12.4342 52.1066 13.1841C51.1343 13.9274 49.8063 14.299 48.1226 14.299H42.5527V0ZM46.4193 5.48683H47.5843C48.1389 5.48683 48.5664 5.37273 48.8666 5.14453C49.1733 4.91631 49.3266 4.57725 49.3266 4.12735C49.3266 3.32535 48.7197 2.92436 47.5059 2.92436H46.4193V5.48683ZM46.4193 8.31339V11.316H47.78C48.9872 11.316 49.5908 10.8074 49.5908 9.79025C49.5908 9.31426 49.4277 8.94912 49.1015 8.69483C48.7817 8.44053 48.3151 8.31339 47.7016 8.31339H46.4193ZM68.2288 0V8.6068C68.2288 10.4781 67.697 11.9289 66.6332 12.9591C65.5759 13.9828 64.0491 14.4946 62.0521 14.4946C60.1008 14.4946 58.5998 13.9958 57.5491 12.9982C56.505 12.0006 55.9831 10.5662 55.9831 8.69483V0H59.8692V8.39164C59.8692 9.40228 60.0583 10.1358 60.4369 10.5922C60.8154 11.0487 61.3734 11.2769 62.1108 11.2769C62.9003 11.2769 63.4715 11.0519 63.8238 10.602C64.1828 10.1456 64.3622 9.40228 64.3622 8.37208V0H68.2288ZM76.3436 5.301L78.8105 0H83.0001L78.2917 8.7144V14.299H74.3957V8.83176L69.6873 0H73.8965L76.3436 5.301Z" fill="#171F29"/>
<path d="M42.0059 16.7527H46.9982C48.9428 16.7527 50.3851 17.0428 51.3248 17.6232C52.2711 18.1969 52.7442 19.0934 52.7442 20.3127C52.7442 21.1148 52.5386 21.7993 52.1274 22.3667C51.7165 22.9339 51.1748 23.299 50.5025 23.462V23.5598C51.3901 23.7945 52.0329 24.1858 52.4309 24.7336C52.8291 25.2813 53.0281 25.992 53.0281 26.8657C53.0281 28.1631 52.5386 29.1869 51.5597 29.9367C50.5874 30.6801 49.2594 31.0517 47.5758 31.0517H42.0059V16.7527ZM45.8725 22.2394H47.0374C47.592 22.2394 48.0195 22.1254 48.3197 21.8973C48.6264 21.6689 48.7797 21.3299 48.7797 20.8801C48.7797 20.078 48.1728 19.677 46.959 19.677H45.8725V22.2394ZM45.8725 25.0661V28.0686H47.2331C48.4404 28.0686 49.044 27.56 49.044 26.5429C49.044 26.0669 48.8809 25.7018 48.5546 25.4476C48.2348 25.1932 47.7682 25.0661 47.1548 25.0661H45.8725ZM67.6819 16.7527V25.3594C67.6819 27.2308 67.1501 28.6816 66.0863 29.7119C65.0291 30.7354 63.5022 31.2473 61.5053 31.2473C59.5539 31.2473 58.0529 30.7485 57.0023 29.7508C55.9581 28.7533 55.4362 27.3188 55.4362 25.4476V16.7527H59.3223V25.1444C59.3223 26.155 59.5115 26.8885 59.89 27.345C60.2685 27.8013 60.8266 28.0295 61.564 28.0295C62.3535 28.0295 62.9246 27.8046 63.2769 27.3546C63.636 26.8983 63.8153 26.155 63.8153 25.1247V16.7527H67.6819ZM75.7967 22.0537L78.2637 16.7527H82.4532L77.7448 25.4671V31.0517H73.8488V25.5845L69.1404 16.7527H73.3497L75.7967 22.0537Z" fill="#171F29"/>
<path d="M47.8317 36.4688C46.9115 36.4688 46.1938 36.847 45.6783 37.6033C45.1627 38.3531 44.905 39.39 44.905 40.7136C44.905 43.4651 45.9524 44.841 48.0471 44.841C48.6801 44.841 49.2935 44.7528 49.8873 44.5768C50.4813 44.4009 51.0783 44.1889 51.6788 43.9411V47.2078C50.4845 47.7359 49.1337 47.9999 47.6261 47.9999C45.4661 47.9999 43.8086 47.3741 42.6535 46.1222C41.5049 44.8703 40.9307 43.0608 40.9307 40.694C40.9307 39.2139 41.208 37.913 41.7626 36.7915C42.324 35.6702 43.1266 34.8094 44.1707 34.2096C45.2214 33.6032 46.4548 33.3 47.8709 33.3C49.4175 33.3 50.8957 33.6358 52.3052 34.3074L51.1208 37.3491C50.5923 37.1012 50.0635 36.8926 49.535 36.7232C49.0063 36.5537 48.4386 36.4688 47.8317 36.4688ZM63.259 47.8044L62.554 45.1245H57.9045L57.18 47.8044H52.9318L57.601 33.4466H62.7596L67.4877 47.8044H63.259ZM61.7514 41.9557L61.1347 39.6083C60.9912 39.0868 60.815 38.412 60.6061 37.5838C60.4038 36.7558 60.2701 36.1624 60.2048 35.8038C60.1461 36.1363 60.0286 36.6841 59.8523 37.4469C59.6827 38.2098 59.3009 39.7127 58.7071 41.9557H61.7514ZM72.9107 42.6012V47.8044H69.0441V33.5054H73.7328C77.6222 33.5054 79.567 34.9137 79.567 37.7306C79.567 39.3867 78.7578 40.6679 77.1394 41.5742L81.3095 47.8044H76.924L73.8896 42.6012H72.9107ZM72.9107 39.6964H73.635C74.9858 39.6964 75.6612 39.0997 75.6612 37.9066C75.6612 36.9221 74.9989 36.4297 73.6741 36.4297H72.9107V39.6964Z" fill="#171F29"/>
<path d="M34.8096 2.82718H1.458C0.652767 2.82718 0 3.47939 0 4.28393V9.01839C0 9.82293 0.652767 10.4751 1.458 10.4751H34.8096C35.6149 10.4751 36.2676 9.82293 36.2676 9.01839V4.28393C36.2676 3.47939 35.6149 2.82718 34.8096 2.82718Z" fill="#13398D"/>
<path d="M34.8102 13.9349H6.56151C5.75628 13.9349 5.10352 14.5871 5.10352 15.3917V20.1261C5.10352 20.9307 5.75628 21.5829 6.56151 21.5829H34.8102C35.6154 21.5829 36.2682 20.9307 36.2682 20.1261V15.3917C36.2682 14.5871 35.6154 13.9349 34.8102 13.9349Z" fill="#13398D"/>
<path d="M34.8097 25.0427H14.5801C13.7748 25.0427 13.1221 25.6949 13.1221 26.4994V31.2339C13.1221 32.0384 13.7748 32.6907 14.5801 32.6907H34.8097C35.615 32.6907 36.2677 32.0384 36.2677 31.2339V26.4994C36.2677 25.6949 35.615 25.0427 34.8097 25.0427Z" fill="#13398D"/>
<path d="M34.8099 36.1504H19.501C18.6957 36.1504 18.043 36.8026 18.043 37.6072V42.3416C18.043 43.1462 18.6957 43.7984 19.501 43.7984H34.8099C35.6151 43.7984 36.2679 43.1462 36.2679 42.3416V37.6072C36.2679 36.8026 35.6151 36.1504 34.8099 36.1504Z" fill="#13398D"/>
</svg>
